<?xml version="1.0" encoding="utf-8"?>
<!-- Generator: Adobe Illustrator 16.0.4, SVG Export Plug-In . SVG Version: 6.00 Build 0)  -->
<!DOCTYPE svg PUBLIC "-//W3C//DTD SVG 1.1//EN" "http://www.w3.org/Graphics/SVG/1.1/DTD/svg11.dtd">
<svg version="1.1" xmlns="http://www.w3.org/2000/svg" xmlns:xlink="http://www.w3.org/1999/xlink" x="0px" y="0px" width="300px"
	 height="300px" viewBox="0.5 900.5 300 300" enable-background="new 0.5 900.5 300 300" xml:space="preserve">
<g id="icons">
</g>
<g id="Layer_1">
	<g>
		<g>
			<path fill="#1D1D1B" d="M53.005,915.423h2.917c2.285,0,3.307,1.296,3.307,2.706c0,0.988-0.487,1.848-1.346,2.236v0.033
				c1.248,0.291,2.042,1.312,2.042,2.593c0,1.701-1.264,3.111-3.711,3.111h-3.209V915.423z M55.712,919.961
				c1.199,0,1.832-0.616,1.832-1.572c0-0.892-0.552-1.556-1.832-1.556h-1.005v3.128H55.712z M56.068,924.692
				c1.329,0,2.123-0.485,2.123-1.685c0-1.021-0.762-1.637-1.945-1.637h-1.54v3.321H56.068z"/>
			<path fill="#1D1D1B" d="M66.327,915.374h1.264l4.23,10.729h-1.815l-1.037-2.739h-3.971l-1.021,2.739h-1.75L66.327,915.374z
				 M68.434,921.971l-0.858-2.432c-0.308-0.875-0.454-1.361-0.568-1.717h-0.032c-0.113,0.372-0.275,0.858-0.583,1.717l-0.891,2.432
				H68.434z"/>
			<path fill="#1D1D1B" d="M74.689,915.423h1.669l4.684,6.061c0.551,0.714,0.972,1.297,1.313,1.815h0.032
				c-0.016-0.566-0.032-1.167-0.032-1.832v-6.044h1.701v10.68H82.55l-4.862-6.304c-0.535-0.682-0.94-1.265-1.313-1.767h-0.032
				c0.032,0.47,0.049,1.021,0.049,1.718v6.353h-1.702V915.423z"/>
			<path fill="#1D1D1B" d="M88.076,915.423h1.702v4.667h0.032l3.792-4.667h1.978l-4.327,5.218l4.586,5.462h-2.074l-3.954-4.749
				h-0.032v4.749h-1.702V915.423z"/>
			<path fill="#1D1D1B" d="M102.156,920.803c0-3.24,2.221-5.477,5.333-5.477c3.128,0,5.315,2.269,5.315,5.477
				c0,3.307-2.269,5.462-5.315,5.462C104.393,926.265,102.156,924.093,102.156,920.803z M111.006,920.803
				c0-2.414-1.33-4.035-3.518-4.035c-2.107,0-3.517,1.54-3.517,4.035c0,2.496,1.41,4.02,3.517,4.02
				C109.594,924.822,111.006,923.299,111.006,920.803z"/>
			<path fill="#1D1D1B" d="M116.354,915.423h6.171l-0.469,1.394h-4.001v3.128h3.937v1.394h-3.937v4.765h-1.701V915.423z"/>
			<path fill="#1D1D1B" d="M130.242,915.423h6.448l-0.469,1.394h-4.277v3.128h4.245v1.394h-4.245v3.371h4.796v1.394h-6.498V915.423z
				"/>
			<path fill="#1D1D1B" d="M140.352,915.423h1.67l4.684,6.061c0.551,0.714,0.973,1.297,1.312,1.815h0.032
				c-0.016-0.566-0.032-1.167-0.032-1.832v-6.044h1.702v10.68h-1.506l-4.862-6.304c-0.535-0.682-0.94-1.265-1.313-1.767h-0.032
				c0.032,0.47,0.048,1.021,0.048,1.718v6.353h-1.703V915.423z"/>
			<path fill="#1D1D1B" d="M162.491,925.422c-0.875,0.453-2.27,0.843-3.745,0.843c-3.403,0-5.494-2.236-5.494-5.315
				c0-3.258,2.286-5.623,5.753-5.623c1.249,0,2.286,0.259,3.048,0.551v1.588c-0.811-0.404-1.767-0.697-2.918-0.697
				c-2.642,0-4.067,1.67-4.067,4.052c0,2.431,1.442,4.003,3.809,4.003c0.778,0,1.475-0.146,1.913-0.357v-3.5h1.701V925.422z"/>
			<path fill="#1D1D1B" d="M166.396,915.423h1.701v9.286h3.841v1.394h-5.542V915.423z"/>
			<path fill="#1D1D1B" d="M177.903,915.374h1.264l4.229,10.729h-1.814l-1.038-2.739h-3.97l-1.021,2.739h-1.75L177.903,915.374z
				 M180.01,921.971l-0.859-2.432c-0.308-0.875-0.455-1.361-0.567-1.717h-0.033c-0.113,0.372-0.275,0.858-0.583,1.717l-0.892,2.432
				H180.01z"/>
			<path fill="#1D1D1B" d="M186.266,915.423h1.669l4.684,6.061c0.551,0.714,0.973,1.297,1.313,1.815h0.032
				c-0.016-0.566-0.032-1.167-0.032-1.832v-6.044h1.701v10.68h-1.507l-4.862-6.304c-0.535-0.682-0.94-1.265-1.313-1.767h-0.032
				c0.032,0.47,0.048,1.021,0.048,1.718v6.353h-1.701V915.423z"/>
			<path fill="#1D1D1B" d="M199.651,915.423h3.064c3.792,0,5.785,2.155,5.785,5.267c0,3.176-2.155,5.413-5.915,5.413h-2.934V915.423
				z M202.601,924.709c2.999,0,4.084-1.864,4.084-4.004c0-2.301-1.345-3.889-4.116-3.889h-1.215v7.893H202.601z"/>
		</g>
		<path fill="#1D1D1B" d="M0.5,920.547c0,9.072,6.346,17.232,15.151,19.442c8.87,2.226,18.36-2.01,22.631-10.091
			c4.284-8.106,2.367-18.377-4.513-24.419c-6.884-6.047-17.33-6.599-24.807-1.296C3.697,907.919,0.5,914.09,0.5,920.547"/>
		<path fill="#FFFFFF" d="M1.459,920.543c0,9.145,6.76,17.225,15.776,18.803c9.048,1.582,18.188-3.711,21.288-12.364
			c3.107-8.674-0.622-18.59-8.647-23.095c-8.042-4.514-18.46-2.463-24.224,4.719C2.947,911.976,1.459,916.223,1.459,920.543"/>
		<path fill="#1D1D1B" d="M2.202,920.543c0,9.149,7.036,17.116,16.128,18.212c9.104,1.097,17.869-4.936,20.041-13.856
			c2.174-8.928-2.811-18.347-11.423-21.554c-8.625-3.212-18.564,0.675-22.747,8.86C2.886,914.779,2.202,917.652,2.202,920.543"/>
		<g>
			<path fill="#FFFFFF" d="M24.646,931.963c-3.093,0.395-4.622-0.586-7.038-2.587c0.233,1.397,1.373,2.624,2.693,3.079
				C21.924,933.015,23.173,932.772,24.646,931.963C21.553,932.357,24.017,932.309,24.646,931.963z"/>
			<path fill="#FFFFFF" d="M18.189,934.033c0.157,0.023,0.256-0.254,0.125-0.341c-0.235-0.157-0.443-0.419-0.234-1.052
				c-0.268,0.016-0.93-0.327-1.2-1.484C16.727,932.277,17.407,933.919,18.189,934.033C18.346,934.057,17.407,933.919,18.189,934.033
				z"/>
			<path fill="#FFFFFF" d="M20.212,933.314c-0.22-0.66-1.496-0.752-1.625-1.084c-0.109,0.379-0.281,0.396-0.312,1.021
				c0.53-0.432,1.062,0.207,1.343,0.608C19.956,934.341,20.333,933.674,20.212,933.314
				C19.993,932.654,20.421,933.938,20.212,933.314z"/>
			<path fill="#FFFFFF" d="M21.416,934.033c-0.125-0.209-0.396-0.203-0.704-0.969C20.158,933.738,21.188,934.576,21.416,934.033
				C21.291,933.824,21.362,934.162,21.416,934.033z"/>
			<path fill="#FFFFFF" d="M19.311,922.129c-3.753,0-3.749,5.389-3.825,7.989l-0.805-3.197c-0.198,0-0.322,0.458-0.273,0.649
				l2.237,8.946c0.24,0.898,0.502,0.267,0.37-0.319l-0.91-3.619c0.209-0.424,0.388-0.975,0.482-1.515
				c-0.208,0-0.646-0.062-0.708-0.312c1.188-0.038,0.861-1.268,0.896-2.185c0.045-1.202,0.045-2.439,0.344-3.612
				c0.577-2.268,2.335-2.305,4.282-2.517C21.004,922.189,19.962,922.129,19.311,922.129z"/>
			<path fill="#FFFFFF" d="M12.056,934.596c1.094,0.281,2.857-0.341,3.376-1.164c-0.071-0.328-0.134-0.547-0.226-0.941
				c-0.102,0.468-0.316,0.896-0.712,1.262C13.713,933.236,13.494,934.376,12.056,934.596
				C13.15,934.877,13.494,934.376,12.056,934.596z"/>
			<path fill="#FFFFFF" d="M17.993,920.644c-0.922,0.147-1.762,0.088-2.672-0.06c-0.758-0.123-1.971,0.352-1.691,1.312
				c0.031-0.234,0.521-0.738,0.958-0.677c-0.219,0.229-0.358,0.423-0.281,0.656c0.005,0.017,1.518-0.56,1.725-0.582
				c0.669-0.073,1.623,0.101,2.181-0.376C18.313,920.832,18.083,920.629,17.993,920.644
				C16.035,920.955,18.083,920.629,17.993,920.644z"/>
			<path fill="#FFFFFF" d="M36.189,911.923c-1.153,1.02-1.533,0.521-2.418,0.802c-0.044,0.014-0.02-0.109-0.066-0.09
				C34.859,911.105,35.736,912.095,36.189,911.923C35.036,912.942,35.736,912.095,36.189,911.923z"/>
			<path fill="#FFFFFF" d="M35.161,913.621c0.01-0.537-0.63-1.253-1.615-0.87C34.304,913.521,34.775,913.438,35.161,913.621z"/>
			<path fill="#FFFFFF" d="M27.05,930.885c0.134-0.342,0.09-0.204-0.159-0.525c-0.136-0.177,0.049-0.467-0.084-0.577
				c-0.564-0.418-1.25,0.22-2.094-0.968c0.406,0.172,0.924,0.55,1.443,0.387c-0.452-1.45-1.008-2.867-1.439-4.323
				c-0.115-0.39-0.134-0.968-0.391-1.296c-0.388-0.495-1.318-0.301-1.795-0.064c0.066-0.174,0.663-0.514,1.058-0.563
				c-1.666-0.317-5.709-0.632-5.784,2.007c-0.039,1.381,2.021,0.525,2.599,0.57c0.683,0.053-0.458,0.896-0.605,0.98
				c-0.733,0.421-1.635,0.561-2.365,0.051c0.428,0.658,1.541,0.758,2.245,0.667c0.876-0.114,1.503-0.687,1.801-1.509
				c0.141,0,0.954-0.033,1.516-0.875c-0.176,1.188-0.584,1.596-1,1.906c-0.652,1.416-2.461,2.678-4,1.656
				c0.942,1.211,5.188,4.531,8.677,2.719c-0.132,0.598-1.382,1.035-1.886,1.351c-0.989,0.62-2.101,0.878-3.259,0.94
				c0.06,0.875,1.464,0.678,1.781,0.568c-0.531-0.078-0.808-0.18-0.844-0.317c0.999,0.054,2.083-0.063,3.333-0.626
				c-0.125,0.281-0.198,0.479-0.479,0.604c1.656,0.134,2.208-1.231,2.6-1.371C27.833,931.94,27.147,930.976,27.05,930.885
				C27.098,930.762,27.147,930.976,27.05,930.885z"/>
			<path fill="#FFFFFF" d="M19.525,919.252c-0.153,0.391-0.906,0.844-0.75,1.469c0-0.188,0.888-0.977,1.094-1.376
				c0.429-0.829,0.187-1.093,0.031-1.843C19.883,918.146,19.782,918.592,19.525,919.252
				C19.372,919.643,19.782,918.592,19.525,919.252z"/>
			<path fill="#FFFFFF" d="M14.024,927.189c0.151,0.18,0.245,0.557,0.449,0.572c-0.041-0.046,0.047-0.407-0.083-0.583
				c-0.104-0.542-0.057-0.792,0.01-0.833c0.25-0.162,0.167,0.428,0.348,0.577c0.046,0.038,0.109,0.084,0.188,0.036
				c-0.01-0.141-0.035-0.334-0.004-0.61c-0.109-0.25-0.187-0.763-0.187-0.785c-0.211-0.331-0.417-0.614-0.74-0.854
				c-0.878-1.1-1.342-2.547-1.917-3.812c-0.365-0.804-0.771-1.207-0.646-1.437c0.172-0.298,0.269-0.485,0.352-0.703
				c-0.144-0.552-0.589-2.278-0.833-3.249c-0.746,1.344-1.104,3.503-0.742,4.978c0.23,0.938,0.779,1.869,1.404,2.599
				c0.422,0.492,1.438,1.241,1.438,1.947c0.043,0.174,0.105,0.485,0.09,0.846c0.045,0.137,0.354,0.467,0.475,0.541
				C13.933,926.605,13.817,926.938,14.024,927.189C14.175,927.369,13.93,927.074,14.024,927.189z"/>
			<path fill="#FFFFFF" d="M21.447,921.126c-0.271,0.208-1.152-0.308-1.75-0.234c-0.406,0.062-0.607,0.317-0.817,0.349
				c-0.873-0.172-1.777,0.19-2.455,0.727c-0.303,0.24-0.574,0.525-0.789,0.848c-0.302,0.452-0.083,0.669-0.251,1.093
				c-0.259,0.876-0.25,1.592-0.151,2.198c0.229-0.812,0.917-3.604,3.542-4.136c-0.656-0.125-1.604,0.156-2.25,0.427
				c0.73-0.832,1.937-0.812,2.735-0.771c0.042-0.003-0.161-0.167-0.234-0.323c0.166,0,0.349,0.193,0.906,0.168
				c0.61-0.03,0.832-0.061,1.172-0.109c-0.509,0.254-0.902,0.43-1.62,0.452c2.021,0.625,2.396-0.126,3.458-0.292
				C22.796,921.251,22.15,921.063,21.447,921.126C21.176,921.334,22.15,921.063,21.447,921.126z"/>
			<path fill="#FFFFFF" d="M12.8,926.663c-0.435-2.001-1.905-3.305-3.034-3.603c-0.039-0.011-0.577,1.839-0.515,3.597
				C10.439,926.572,11.916,926.604,12.8,926.663C12.365,924.662,11.916,926.604,12.8,926.663z"/>
			<path fill="#FFFFFF" d="M9.494,928.93c0.364,1.864,0.864,3.004,1.249,3.703c0.923-0.46,2.059-1.548,2.244-3.812
				C11.691,928.762,10.426,928.86,9.494,928.93C9.858,930.794,10.426,928.86,9.494,928.93z"/>
			<path fill="#FFFFFF" d="M7.541,923.338c-0.949,0.543-1.912,1.8-2.018,3.888c0.408-0.104,0.985-0.245,1.533-0.329
				C7.036,926.127,7.056,924.869,7.541,923.338C6.592,923.881,7.056,924.869,7.541,923.338z"/>
			<path fill="#FFFFFF" d="M5.794,929.385c0.578,2.057,1.913,2.981,2.698,3.295c-0.644-1.205-0.982-2.343-1.201-3.522
				C6.63,929.247,6.15,929.322,5.794,929.385C6.372,931.441,6.15,929.322,5.794,929.385z"/>
			<path fill="#FFFFFF" d="M15.775,921.896c-1.5,0.197-1.424,1.397-1.282,1.666C14.799,922.882,14.963,922.605,15.775,921.896z"/>
			<path fill="#FFFFFF" d="M12.902,917.52c0.315-0.221,0.315-0.759,0.268-1.01C12.934,916.872,12.824,917.22,12.902,917.52z"/>
			<path fill="#FFFFFF" d="M33.947,911.643c-1.016,0.046-1.469,0.363-1.63,1.434C33.973,912.451,33.552,911.809,33.947,911.643z"/>
			<path fill="#FFFFFF" d="M18.462,915.585c-0.099,0.599-0.604,0.604-0.812,0.874c-0.078-0.109,0.031-0.441,0.093-0.582
				c-0.578,0.39-0.938,1.002-0.938,1.5c-0.071-0.119-1.151-1.853-1.327-1.405c-0.074,0.188,0.321,0.908,0.366,1.115
				c0.079,0.358,0.2,1.263-0.274,1.462c0.033-0.25-0.369-2.947-0.794-2.65c-0.78,0.543-0.363,2.623-0.056,3.281
				c-0.611-0.746-0.897-1.658-0.73-2.613c0.114-0.65,0.381-1.236-0.216-1.753c0.169,1.248-0.92,2.439-0.579,3.644
				c0.117,0.412,0.601,0.79,0.878,1.113c0.165,0.193,0.417,0.494,0.701,0.494c0.289,0,0.296-0.418,0.152-0.577
				c0.408-0.054,0.607,0.575,0.609,0.575c0.611-0.041,1.042-1.631,1.174-2.099c0.199,0.53,0.164,1.104-0.023,1.632
				c-0.016,0.045-0.273,0.686-0.275,0.686c0.531-0.013,1.1-0.879,1.356-1.271c0.018,0.103-0.212,1.218,0.182,0.706
				c0.278-0.361,0.342-0.931,0.393-1.369c0.056-0.477,0.397-0.713,0.564-1.142c0.217-0.559-0.285-1.089-0.102-1.608
				c1.237,0.699,2.637,1.037,4.007,1.386c1.205,0.306,2.816-0.849,3.795-1.45c0.272-0.194,0.768-0.49,1.062-0.584
				c0.367-0.131,0.892,0.278,1.279,0.318c-0.294,0.389-0.772,0.939-1.041,1.492c0.044,0.055,0.176,0.115,0.225,0.146
				c0.422-0.717,0.867-1.328,1.306-1.803c0.029-0.032-0.179-0.07-0.148-0.211c0.022-0.023,0.43,0.211,0.704,0.124
				c0.018-0.017,0.133,0,0.117-0.148c0.132-0.046,0.169-0.162,0.156-0.188c-0.328-0.054-0.581-0.104-0.69-0.097
				c-0.033,0.007-0.143,0.062-0.122,0.14c-0.062,0.005-0.155,0.032-0.16,0.095c-0.61,0.249-1.246-0.453-1.749-0.301
				c0.173-0.337,0.926-0.037,1.184,0.008c0.52,0.091,0.969-0.126,1.498,0.039c0.137,0.052,0.265,0.041,0.382-0.03
				c0.122-0.174-0.919-0.414-1.02-0.466c0.31-0.005,0.615-0.051,1.021,0.113c0.146-0.005,0.565-0.401,0.706-0.48
				c0.768-0.434,1.6-0.765,2.455-0.977l0.027-0.169c-0.797,0.141-1.555,0.392-3.239,1.346c-0.044-0.021-0.181-0.067-0.628-0.15
				c-0.742,0.086-1.495,0.055-2.234,0.165c-0.859,0.128-1.728,0.59-2.577,0.816c-0.612,0.163-1.411,0.625-2.023,0.67
				c-0.636,0.047-1.467-0.754-2.031-1.026c-0.151-0.063-0.867-0.476-1.012-0.506C19.307,913.968,18.604,914.99,18.462,915.585
				C18.364,916.184,18.604,914.99,18.462,915.585z"/>
			<path fill="#FFFFFF" d="M14.197,914.771c0.409,0.474,1.188,0.949,2.031,0.667c-1.219-0.265-2.162-2.771-3.536-2.854
				c-0.292-0.02-0.729,0.084-1.167,0.667C13.087,912.646,13.814,914.33,14.197,914.771C14.606,915.245,13.814,914.33,14.197,914.771
				z"/>
			<path fill="#FFFFFF" d="M32.359,911.688c-0.229,0.011-1.313,0.312-1.021,1.833C32.473,912.772,32.213,911.918,32.359,911.688z"/>
			<path fill="#FFFFFF" d="M30.947,912.438c-0.968,0.516-0.706,1.043-0.724,1.407l0.24,0.094
				C31.182,913.221,30.854,912.615,30.947,912.438C29.979,912.954,30.854,912.615,30.947,912.438z"/>
			<path fill="#FFFFFF" d="M29.213,935.272c-0.599-0.141-1.061-0.081-1.609-0.416c-0.496-0.302-1.052-0.592-1.62-0.729
				c-1.118,0.414-1.561,0.271-2.084,0.256c-0.646,0.348-1.379,0.232-2.019,0c-0.602,0.443-1.116,0.242-1.377,0.035
				c-1.021,0.605-0.873-0.266-1.562-0.281c-1.011,0.646-1.85,0.217-2.252-0.033c0.094,0.393,0.22,0.842,0.328,1.301l12.317,0.008
				C29.334,935.412,29.525,935.346,29.213,935.272C28.638,935.138,29.525,935.346,29.213,935.272z"/>
			<path fill="#FFFFFF" d="M28.904,935.909c-0.234-0.001-11.76-0.001-11.76-0.001l0.201,0.822c0.184,0.908-0.843,0.898-1.047,0.123
				l-0.234-0.945c0,0-2.008,0-3.8,0.002C17.161,938.812,23.997,938.696,28.904,935.909C28.67,935.908,28.008,936.418,28.904,935.909
				z"/>
			<path fill="#FFFFFF" d="M10.058,914.854c-2.597,3.604-1.389,5.779-1.159,6.241c-0.125-0.542-0.354-1.594,0-2.51
				c0,0.158,0.063,0.667,0.438,1.021c-0.083-0.916-0.479-1.697,1.073-4.902C10.52,914.468,10.273,914.555,10.058,914.854
				C7.461,918.458,10.273,914.555,10.058,914.854z"/>
			<path fill="#FFFFFF" d="M14.55,929.783c-0.087-0.385-0.378-1.561-0.525-2.117c-0.207-0.322-0.441-0.532-0.664-0.656
				c0.49,2.152-0.06,5.172-2.241,6.236c-2.044,0.998-4.072-0.403-5.067-2.192c-1.12-2.015-1.2-4.837,0.108-6.792
				c1.159-1.733,3.256-2.188,4.99-0.959c-0.5-0.864-0.673-1.331-0.817-1.817c-3.18-1.206-5.496,2.081-5.908,4.806
				c-0.468,3.09,1.024,7.934,4.615,8.508C11.831,935.436,14.167,932.941,14.55,929.783C14.462,929.398,14.167,932.941,14.55,929.783
				z"/>
			<path fill="#FFFFFF" d="M9.994,909.887c0.461,1.296,2.979,13.602,3.559,13.492c0.086-0.018,0.216-0.161,0.133-0.461
				c0,0-1.312-5.156-1.359-5.375c0.391-0.625,0.479-1.541,0.843-2.014c0.33,0.451,0.236-0.741,0.22-0.85
				c-0.063-0.414-0.232-0.844-0.59-1.088c-0.57-0.391-1.171,0.062-1.283,0.678l-1.109-4.472c0.211-0.03,0.367,0.062,0.513,0.203
				c-0.044-0.464-0.529-2.056-1.412-2.523c-0.461,1.469-0.068,2.472,0.057,2.888C9.61,910.181,9.723,909.949,9.994,909.887
				C10.045,910.032,9.723,909.949,9.994,909.887z"/>
			<path fill="#FFFFFF" d="M15.619,934.131c-0.958,0.666-2.578,1.043-3.484,1.074c-0.469,0.012-0.482,0.148-0.459,0.208
				c0.37,0.006,4.271-0.006,4.271-0.006S15.702,934.443,15.619,934.131C14.66,934.797,15.702,934.443,15.619,934.131z"/>
			<path fill="#FFFFFF" d="M32.494,913.063c1.461-0.038,1.648,0.696,1.625,1.031C33.986,913.97,32.869,914.063,32.494,913.063z"/>
			<path fill="#FFFFFF" d="M31.473,913.563c0.594,0.865,1.303,0.784,1.677,0.917C32.713,913.376,31.722,913.508,31.473,913.563z"/>
			<path fill="#FFFFFF" d="M31.483,914.168c-0.22-0.109-0.692-0.232-0.937-0.094c0,0,0.104,0.979,1.625,0.792
				C32.193,914.919,31.711,914.281,31.483,914.168C31.263,914.059,31.711,914.281,31.483,914.168z"/>
			<path fill="#FFFFFF" d="M28.983,934.814c0.232,0,0.667,0.062,1.083-0.271c0.297,0.093,0.445-0.151,0.5-0.292
				c-0.401-0.184-0.787-0.424-1.147-0.676c-0.42-0.294-0.759-0.794-1.249-0.971c-0.438,0.209-1.107,1.17-1.438,1.229
				C27.504,934.148,28.052,934.812,28.983,934.814C29.216,934.814,28.052,934.812,28.983,934.814z"/>
		</g>
		<path fill="#FFFFFF" d="M31.275,906.501"/>
		<path fill="#FFFFFF" d="M29.306,926.934c-0.13,0.527-1.399,0.216-1.27-0.311c0.218,0.022,0.413-0.061,0.729-0.23
			C28.866,926.618,29.116,926.771,29.306,926.934C29.254,927.145,29.116,926.771,29.306,926.934z"/>
		<path fill="#FFFFFF" d="M29.548,928.33c0.266,0.093,0.549,0.072,0.721-0.022c0.136,0.462-0.788,1.263-1.14,0.827
			C29.425,928.996,29.572,928.658,29.548,928.33C29.814,928.423,29.572,928.658,29.548,928.33z"/>
		<path fill="#FFFFFF" d="M28.464,929.496c0.675,0.319,0.474,1.025-0.235,1.019c-0.495-0.005-1.511-0.738-0.637-1.077
			C27.696,929.519,28.133,929.592,28.464,929.496C28.77,929.641,28.133,929.592,28.464,929.496z"/>
		<path fill="#FFFFFF" d="M28.162,928.386c-0.015,0-0.029,0.001-0.043,0.003c-0.417-0.156-0.514-0.371-0.493-0.645
			c-0.728,0-0.823,0.707-0.064,0.85c-0.546,0.521,0.585,0.742,0.895,0.656C29.234,929.034,28.773,928.375,28.162,928.386
			C28.147,928.386,28.564,928.379,28.162,928.386z"/>
		<path fill="#FFFFFF" d="M30.771,930.738c-0.415,0.675-1.811-0.188-1.398-0.859C29.789,929.205,31.185,930.066,30.771,930.738z"/>
		<path fill="#FFFFFF" d="M33.15,933.104c0,1.4-2.421,1.401-2.421,0C30.729,931.701,33.15,931.701,33.15,933.104z"/>
		<path fill="#FFFFFF" d="M33.729,928.791c0.775,0.33,0.157,1.082-0.39,1.188c-0.533,0.104-1.383-0.336-0.825-0.936
			C32.666,929.15,33.439,929.196,33.729,928.791C33.918,928.871,33.439,929.196,33.729,928.791z"/>
		<path fill="#FFFFFF" d="M34.212,931.113c-0.502-0.017-0.898-0.387-0.884-0.828c0.28,0.039,0.884-0.254,0.933-0.77
			C35.415,929.55,35.365,931.147,34.212,931.113C33.71,931.097,34.714,931.128,34.212,931.113z"/>
		<path fill="#FFFFFF" d="M31.142,931.164c1.164,0.104,1.462-0.402,1.567-0.875C34.493,931.109,31.637,932.862,31.142,931.164
			C32.306,931.268,31.246,931.52,31.142,931.164z"/>
		<path fill="#FFFFFF" d="M28.821,932.069c0.076-0.179,0.238-0.304,0.443-0.364c0.011,0.229,0.289,1.027,1.487,0.824
			c-0.039,0.09-0.046,0.301,0.072,0.395C30.413,933.889,28.41,933.033,28.821,932.069C28.897,931.891,28.652,932.467,28.821,932.069
			z"/>
		<path fill="#FFFFFF" d="M29.318,931.426c-0.208,0.668-1.78,0.177-1.57-0.49c0.137,0.065,0.511,0.145,0.938-0.243
			C29.119,930.828,29.402,931.156,29.318,931.426C29.234,931.696,29.402,931.156,29.318,931.426z"/>
		<path fill="#FFFFFF" d="M31.214,932.116c-0.473,0.142-1.667,0.097-1.667-0.63c0.12-0.031,0.646,0.119,1.25-0.443
			C30.745,931.438,30.9,931.893,31.214,932.116C31.06,932.162,30.9,931.893,31.214,932.116z"/>
		<path fill="#FFFFFF" d="M32.047,926.604c-0.554,0.346-0.97,0.408-1.134,0.283c0.855-0.227,1.092-1.129-0.012-0.984
			c-0.036,0.244-0.126,0.568-1.021,0.575c-0.156,0.375,0.38,0.472,0.619,0.468c-0.161,0.389-0.599,0.545-1.065,0.485
			c-0.037,0.777,1.817,0.833,1.783,0.048C31.833,927.646,33.09,927.037,32.047,926.604
			C31.494,926.949,32.298,926.707,32.047,926.604z"/>
		<path fill="#FFFFFF" d="M27.775,927.05c0-0.434-0.753-0.434-1.02-0.463c-0.054-0.751-0.108-1.503-0.136-2.255
			c-0.018-0.492,0.128-1.226-0.324-1.57c-0.704-0.536-2.03-0.861-2.883-1.057c-0.648,0.006-1.216,0.377-1.721,0.733
			c0.846-0.024,1.718-0.034,2.482,0.397c0.944,0.531,0.912,1.312,2.055,0.494c-0.073,0.447-0.312,0.742-0.579,1.087
			c-0.312,0.405-0.265,1.057-0.167,1.522c0.125-0.313,0.134-0.977,0.667-1.271c-0.813,1.488,0.053,3.278,0.729,4.584
			c0.058-0.252,0-0.776-0.061-1.746C27.075,927.506,27.775,927.443,27.775,927.05z"/>
		<path fill="#FFFFFF" d="M31.986,929.532c-0.185,0.249-0.357,0.698-1.013,0.824c0.274,0.446,0.99,0.262,1.323,0.011
			C32.046,930.023,31.999,929.818,31.986,929.532C31.802,929.781,31.999,929.818,31.986,929.532z"/>
		<path fill="#FFFFFF" d="M33.32,927.546c-0.404-0.172-1.525-0.029-0.841,0.549c-0.203-0.008-0.328-0.039-0.523-0.312
			c-0.201,0.094-0.408,0.043-0.52,0.031c-0.045,0.137-0.02,0.283,0.058,0.418c-0.586-0.225-1.563,0.506-1.14,1.141
			c0.458,0.683,1.725-0.102,1.456-0.828c0.333,0.199,0.947,0.287,1.185-0.114C34.018,928.832,34.259,927.945,33.32,927.546
			C32.862,927.352,33.778,927.741,33.32,927.546z"/>
		<path fill="#FFFFFF" d="M19.338,913.303c-0.617-0.449-0.63-0.908-0.927-0.76c0.375,0.812,0.302,1.396-0.887,1.994
			c-0.104-0.274,0.454-0.535,0.579-0.721c0.167-0.245,0.184-0.552,0.146-0.838c-0.065-0.482-0.365-1.061-0.932-1.05
			c0.334,0.479,0.676,0.993,0.366,1.808c-0.001-0.688-0.147-0.907-0.616-1.465c-0.137,0.17-0.464,0.375-0.495,0.761
			c-0.396-0.208,0.541-1.253,0.346-1.718c-0.265-0.142-0.39-0.459-0.427-0.771c0.35,0.361,0.939,0.639,1.45,0.606
			c0.475-0.03,0.115-0.581,0.419-0.569c0.051-0.146-0.007-0.188-0.085-0.246c0.158,0,0.209-0.1,0.221-0.135
			c-0.192-0.336,0.504-0.184,0.287-0.675c-0.256-0.58-0.047-1.103-0.258-1.68c0.417-0.272,0.372-0.683,0.195-0.745
			c-0.521-0.148-0.915-0.665-1.417-0.881c-0.585-0.252-1.5-0.252-2.079,0.024c-1.05,0.502-2.125,2.616-0.916,3.48
			c-0.34-1.263-0.039-2.769,1.257-3.37c0.679-0.181,1.554-0.165,1.835,0.303c-1.02-0.308-2.597,0.229-2.354,1.532
			c-0.354,0.011-0.413-0.36-0.417-0.364c-0.102,0.262-0.244,1.096,0.393,1.527c0.147,0.1,0.346-0.002,0.281-0.109
			c-0.262-0.425-0.057-0.771,0.034-0.806c0.229-0.089,0.45-0.315,0.485-0.607c0.188,0.359,0.094,0.609-0.125,0.828
			c0.671-0.156,0.328-0.448,1.203-0.573c-0.542,0.312-0.356,0.725-0.93,0.91c0.992,0.358,0.828-1.22,1.899-1.098
			c-0.93,0.097-0.829,2.512-2.927,2.938c-0.292,1.308-0.802,1.396-1.553,1.72c1.526,0.448,2.157,2.427,3.782,2.136
			c-0.167,0.291-0.396,0.291-0.604,0.291c-0.021,0.416,0.037,0.755,0.349,0.74c1.422-0.312,1.766-1.86,3.1-2.096
			C19.963,913.459,19.567,913.49,19.338,913.303C18.721,912.854,19.567,913.49,19.338,913.303z M17.619,907.595
			c0.469-0.156,0.438-0.423,0.261-0.761C18.697,907.235,18.587,907.688,17.619,907.595z M18.115,908.758
			c0.03-0.01-0.031-0.232-0.406-0.211c0.203-0.109,0.451-0.152,0.667-0.059c0.286,0.123,0.006,0.188-0.021,0.377
			c-0.006,0.036,0.083,0.062,0.104,0.098c-0.044-0.002-0.123,0.035-0.162,0.036c-0.016,0.037-0.057,0.169-0.096,0.173
			c-0.234-0.008-0.373-0.258-0.524-0.305C17.712,908.882,17.86,908.785,18.115,908.758C18.145,908.748,17.86,908.785,18.115,908.758
			z M14.224,909.953c-1.167,0.854-0.334,1.882-1.293,2.393C14.046,912.309,13.745,910.703,14.224,909.953z"/>
		<path fill="#FFFFFF" d="M8.002,923.121c0.479-0.174,1.028-0.203,1.366-0.136c-1.297,4.484,0.052,8.167,0.992,9.776
			c-0.633,0.198-1.288,0.104-1.417,0.044C7.702,930.334,6.837,926.665,8.002,923.121C8.481,922.947,6.837,926.665,8.002,923.121z"/>
		<path fill="#FFFFFF" d="M5.525,927.637c0.021,0.458,0.104,1.074,0.166,1.354c1.646-0.303,3.725-0.521,7.32-0.591
			c0.034-0.367-0.067-1.186-0.127-1.389C10.681,926.813,6.845,927.134,5.525,927.637C5.545,928.095,6.845,927.134,5.525,927.637z"/>
		<path fill="#FFFFFF" d="M35.784,931.444c-0.305,0.418-0.878,1.093-1.273,1.485c-0.479-0.118-1.178-0.594-0.724-1.139
			C34.233,931.252,35.175,931.227,35.784,931.444C35.479,931.862,35.571,931.368,35.784,931.444z"/>
		<path fill="#FFFFFF" d="M30.655,925.805c-0.023,0.502-1.741,0.426-1.717-0.075C28.958,925.229,30.678,925.304,30.655,925.805z"/>
		<path fill="#FFFFFF" d="M29.261,925.301c-0.156-0.38-2.034,0.395-1.877,0.775C27.538,926.455,29.418,925.685,29.261,925.301z"/>
		<path fill="#FFFFFF" d="M29.015,927.449c-0.115,0.178-0.125,0.375,0.078,0.615c-1.02,0.514-1.888-0.752-0.532-0.752
			C28.64,927.377,28.744,927.459,29.015,927.449C28.9,927.627,28.744,927.459,29.015,927.449z"/>
	</g>
	<g>
		<g>
			<path fill="#1D1D1B" d="M73.705,967.24h4.067c3.186,0,4.61,1.807,4.61,3.772c0,1.378-0.679,2.576-1.876,3.118v0.045
				c1.74,0.407,2.847,1.83,2.847,3.616c0,2.372-1.762,4.338-5.174,4.338h-4.474V967.24z M77.478,973.566
				c1.671,0,2.554-0.858,2.554-2.191c0-1.243-0.769-2.169-2.554-2.169h-1.401v4.36H77.478z M77.975,980.164
				c1.853,0,2.96-0.678,2.96-2.35c0-1.424-1.062-2.282-2.711-2.282h-2.146v4.632H77.975z"/>
			<path fill="#1D1D1B" d="M92.278,967.172h1.762l5.898,14.958h-2.531l-1.446-3.819h-5.536l-1.424,3.819h-2.44L92.278,967.172z
				 M95.215,976.369l-1.197-3.391c-0.429-1.219-0.633-1.896-0.792-2.395h-0.045c-0.158,0.52-0.384,1.198-0.813,2.395l-1.243,3.391
				H95.215z"/>
			<path fill="#1D1D1B" d="M103.937,967.24h2.327l6.531,8.449c0.768,0.994,1.355,1.809,1.831,2.531h0.045
				c-0.022-0.79-0.045-1.627-0.045-2.553v-8.428h2.372v14.89h-2.101l-6.779-8.79c-0.746-0.949-1.311-1.762-1.831-2.462h-0.045
				c0.045,0.655,0.068,1.423,0.068,2.396v8.856h-2.373V967.24z"/>
			<path fill="#1D1D1B" d="M122.602,967.24h2.373v6.508h0.045l5.287-6.508h2.757l-6.033,7.274l6.394,7.615h-2.892l-5.513-6.621
				h-0.045v6.621h-2.373V967.24z"/>
			<path fill="#1D1D1B" d="M142.231,974.741c0-4.519,3.096-7.637,7.435-7.637c4.361,0,7.411,3.163,7.411,7.637
				c0,4.608-3.164,7.614-7.411,7.614C145.35,982.355,142.231,979.328,142.231,974.741z M154.571,974.741
				c0-3.366-1.854-5.626-4.904-5.626c-2.938,0-4.904,2.146-4.904,5.626s1.966,5.604,4.904,5.604
				C152.603,980.345,154.571,978.221,154.571,974.741z"/>
			<path fill="#1D1D1B" d="M162.026,967.24h8.604l-0.654,1.943h-5.578v4.36h5.488v1.942h-5.488v6.644h-2.372V967.24z"/>
			<path fill="#1D1D1B" d="M181.39,967.24h8.99l-0.654,1.943h-5.963v4.36h5.918v1.942h-5.918v4.699h6.687v1.944h-9.059V967.24z"/>
			<path fill="#1D1D1B" d="M195.486,967.24h2.329l6.53,8.449c0.769,0.994,1.356,1.809,1.829,2.531h0.045
				c-0.022-0.79-0.045-1.627-0.045-2.553v-8.428h2.373v14.89h-2.1l-6.779-8.79c-0.746-0.949-1.311-1.762-1.831-2.462h-0.045
				c0.045,0.655,0.067,1.423,0.067,2.396v8.856h-2.374V967.24z"/>
			<path fill="#1D1D1B" d="M226.353,981.181c-1.22,0.633-3.165,1.175-5.221,1.175c-4.745,0-7.66-3.117-7.66-7.411
				c0-4.541,3.188-7.84,8.021-7.84c1.742,0,3.187,0.361,4.25,0.769v2.214c-1.13-0.564-2.463-0.972-4.068-0.972
				c-3.683,0-5.671,2.328-5.671,5.648c0,3.389,2.01,5.581,5.31,5.581c1.084,0,2.056-0.204,2.667-0.497v-4.881h2.372V981.181z"/>
			<path fill="#1D1D1B" d="M231.798,967.24h2.372v12.945h5.355v1.944h-7.728V967.24z"/>
			<path fill="#1D1D1B" d="M247.841,967.172h1.762l5.897,14.958h-2.529l-1.447-3.819h-5.536l-1.424,3.819h-2.44L247.841,967.172z
				 M250.777,976.369l-1.197-3.391c-0.43-1.219-0.634-1.896-0.791-2.395h-0.046c-0.157,0.52-0.384,1.198-0.812,2.395l-1.244,3.391
				H250.777z"/>
			<path fill="#1D1D1B" d="M259.5,967.24h2.326l6.531,8.449c0.768,0.994,1.355,1.809,1.83,2.531h0.045
				c-0.021-0.79-0.045-1.627-0.045-2.553v-8.428h2.373v14.89h-2.102l-6.777-8.79c-0.746-0.949-1.312-1.762-1.832-2.462h-0.045
				c0.045,0.655,0.066,1.423,0.066,2.396v8.856H259.5V967.24z"/>
			<path fill="#1D1D1B" d="M278.162,967.24h4.271c5.287,0,8.066,3.006,8.066,7.343c0,4.429-3.004,7.547-8.246,7.547h-4.092V967.24z
				 M282.275,980.186c4.182,0,5.693-2.598,5.693-5.58c0-3.208-1.875-5.422-5.738-5.422h-1.695v11.002H282.275z"/>
		</g>
		<path fill="#1D1D1B" d="M0.5,974.383c0,12.65,8.847,24.026,21.125,27.108c12.366,3.104,25.598-2.802,31.553-14.069
			c5.973-11.302,3.3-25.621-6.292-34.045c-9.598-8.432-24.161-9.2-34.587-1.807C4.958,956.777,0.5,965.381,0.5,974.383"/>
		<path fill="#FFFFFF" d="M1.837,974.379c0,12.749,9.425,24.016,21.995,26.215c12.616,2.206,25.359-5.174,29.681-17.238
			c4.332-12.094-0.867-25.919-12.056-32.199c-11.212-6.293-25.738-3.436-33.773,6.578C3.912,962.434,1.837,968.355,1.837,974.379"/>
		<path fill="#1D1D1B" d="M2.873,974.378c0,12.757,9.81,23.864,22.487,25.392c12.694,1.53,24.913-6.881,27.942-19.318
			c3.031-12.448-3.918-25.58-15.926-30.051c-12.024-4.479-25.882,0.941-31.714,12.354C3.827,966.342,2.873,970.35,2.873,974.378"/>
		<g>
			<path fill="#FFFFFF" d="M34.166,990.3c-4.312,0.55-6.443-0.817-9.812-3.606c0.325,1.949,1.915,3.658,3.754,4.294
				C30.37,991.768,32.111,991.43,34.166,990.3C29.853,990.85,33.288,990.783,34.166,990.3z"/>
			<path fill="#FFFFFF" d="M25.163,993.187c0.219,0.032,0.357-0.353,0.174-0.475c-0.328-0.219-0.618-0.584-0.327-1.468
				c-0.373,0.023-1.297-0.455-1.672-2.068C23.124,990.738,24.073,993.027,25.163,993.187
				C25.382,993.219,24.073,993.027,25.163,993.187z"/>
			<path fill="#FFFFFF" d="M27.983,992.186c-0.306-0.922-2.085-1.049-2.266-1.512c-0.151,0.527-0.391,0.552-0.435,1.424
				c0.738-0.603,1.48,0.289,1.873,0.848C27.625,993.615,28.151,992.687,27.983,992.186
				C27.677,991.264,28.274,993.055,27.983,992.186z"/>
			<path fill="#FFFFFF" d="M29.662,993.187c-0.174-0.29-0.552-0.282-0.981-1.351C27.907,992.776,29.343,993.943,29.662,993.187
				C29.487,992.896,29.586,993.366,29.662,993.187z"/>
			<path fill="#FFFFFF" d="M26.726,976.59c-5.233,0-5.227,7.514-5.333,11.139l-1.122-4.457c-0.276,0-0.449,0.638-0.381,0.905
				l3.119,12.473c0.335,1.253,0.701,0.371,0.516-0.446l-1.268-5.045c0.292-0.591,0.541-1.357,0.672-2.111
				c-0.291,0-0.901-0.088-0.988-0.436c1.655-0.053,1.201-1.767,1.249-3.045c0.063-1.676,0.063-3.401,0.48-5.036
				c0.805-3.163,3.255-3.214,5.97-3.509C29.088,976.674,27.635,976.59,26.726,976.59z"/>
			<path fill="#FFFFFF" d="M16.612,993.971c1.525,0.393,3.984-0.475,4.707-1.621c-0.1-0.459-0.187-0.765-0.315-1.312
				c-0.142,0.65-0.441,1.25-0.993,1.758C18.922,992.076,18.617,993.665,16.612,993.971
				C18.137,994.363,18.617,993.665,16.612,993.971z"/>
			<path fill="#FFFFFF" d="M24.889,974.519c-1.285,0.205-2.457,0.122-3.725-0.083c-1.057-0.171-2.748,0.49-2.358,1.83
				c0.043-0.326,0.726-1.029,1.336-0.943c-0.305,0.319-0.499,0.59-0.392,0.914c0.007,0.023,2.117-0.779,2.405-0.811
				c0.933-0.103,2.263,0.141,3.041-0.525C25.336,974.781,25.016,974.499,24.889,974.519
				C22.159,974.953,25.016,974.499,24.889,974.519z"/>
			<path fill="#FFFFFF" d="M50.259,962.359c-1.608,1.422-2.137,0.726-3.371,1.117c-0.062,0.021-0.027-0.152-0.093-0.125
				C48.404,961.221,49.627,962.6,50.259,962.359C48.651,963.781,49.627,962.6,50.259,962.359z"/>
			<path fill="#FFFFFF" d="M48.826,964.729c0.014-0.75-0.879-1.748-2.252-1.214C47.631,964.589,48.288,964.473,48.826,964.729z"/>
			<path fill="#FFFFFF" d="M37.517,988.797c0.187-0.477,0.125-0.284-0.222-0.732c-0.19-0.246,0.068-0.65-0.117-0.805
				c-0.787-0.582-1.743,0.307-2.92-1.35c0.566,0.24,1.288,0.768,2.012,0.539c-0.63-2.021-1.406-3.996-2.007-6.027
				c-0.16-0.543-0.187-1.349-0.545-1.807c-0.542-0.689-1.837-0.419-2.503-0.09c0.092-0.242,0.924-0.716,1.475-0.785
				c-2.323-0.442-7.959-0.881-8.063,2.798c-0.055,1.925,2.818,0.733,3.623,0.796c0.952,0.074-0.639,1.25-0.844,1.366
				c-1.022,0.587-2.28,0.782-3.298,0.071c0.597,0.918,2.149,1.057,3.13,0.93c1.222-0.158,2.095-0.957,2.511-2.104
				c0.197,0,1.33-0.045,2.114-1.22c-0.246,1.656-0.814,2.225-1.395,2.658c-0.909,1.975-3.432,3.733-5.577,2.309
				c1.313,1.688,7.233,6.318,12.098,3.791c-0.185,0.834-1.927,1.444-2.63,1.883c-1.379,0.864-2.929,1.225-4.544,1.312
				c0.083,1.219,2.042,0.943,2.483,0.791c-0.741-0.107-1.127-0.249-1.177-0.441c1.393,0.075,2.904-0.088,4.648-0.873
				c-0.174,0.391-0.276,0.668-0.668,0.843c2.309,0.187,3.079-1.718,3.625-1.911C38.609,990.27,37.652,988.924,37.517,988.797
				C37.584,988.626,37.652,988.924,37.517,988.797z"/>
			<path fill="#FFFFFF" d="M27.026,972.578c-0.214,0.545-1.264,1.176-1.046,2.047c0-0.261,1.238-1.361,1.525-1.917
				c0.598-1.157,0.261-1.523,0.043-2.569C27.525,971.038,27.384,971.658,27.026,972.578
				C26.812,973.123,27.384,971.658,27.026,972.578z"/>
			<path fill="#FFFFFF" d="M19.356,983.645c0.21,0.252,0.342,0.777,0.626,0.799c-0.057-0.064,0.065-0.568-0.117-0.812
				c-0.146-0.757-0.079-1.105,0.015-1.162c0.348-0.227,0.232,0.597,0.484,0.805c0.064,0.053,0.153,0.117,0.262,0.05
				c-0.015-0.195-0.049-0.465-0.006-0.851c-0.152-0.348-0.261-1.062-0.261-1.094c-0.294-0.463-0.581-0.857-1.032-1.191
				c-1.224-1.533-1.872-3.553-2.672-5.315c-0.508-1.121-1.074-1.685-0.9-2.003c0.24-0.415,0.375-0.678,0.49-0.98
				c-0.2-0.771-0.821-3.178-1.161-4.529c-1.04,1.873-1.54,4.883-1.035,6.939c0.321,1.307,1.086,2.605,1.958,3.621
				c0.589,0.688,2.005,1.732,2.005,2.717c0.06,0.241,0.147,0.676,0.125,1.179c0.063,0.19,0.493,0.651,0.663,0.755
				C19.228,982.831,19.067,983.295,19.356,983.645C19.566,983.896,19.225,983.485,19.356,983.645z"/>
			<path fill="#FFFFFF" d="M29.705,975.191c-0.378,0.29-1.606-0.429-2.44-0.326c-0.566,0.086-0.846,0.442-1.14,0.485
				c-1.216-0.239-2.478,0.266-3.422,1.014c-0.422,0.335-0.8,0.731-1.099,1.183c-0.421,0.629-0.115,0.932-0.351,1.521
				c-0.362,1.223-0.349,2.221-0.211,3.066c0.319-1.134,1.277-5.026,4.938-5.768c-0.915-0.174-2.236,0.219-3.138,0.596
				c1.018-1.16,2.701-1.133,3.813-1.074c0.059-0.004-0.225-0.232-0.326-0.45c0.231,0,0.487,0.27,1.264,0.233
				c0.85-0.042,1.16-0.084,1.634-0.152c-0.709,0.354-1.257,0.6-2.259,0.631c2.817,0.871,3.34-0.176,4.821-0.406
				C31.585,975.365,30.686,975.104,29.705,975.191C29.327,975.481,30.686,975.104,29.705,975.191z"/>
			<path fill="#FFFFFF" d="M17.649,982.912c-0.606-2.79-2.656-4.608-4.23-5.023c-0.054-0.016-0.805,2.564-0.717,5.015
				C14.357,982.784,16.416,982.828,17.649,982.912C17.043,980.122,16.416,982.828,17.649,982.912z"/>
			<path fill="#FFFFFF" d="M13.039,986.07c0.508,2.601,1.205,4.189,1.741,5.165c1.288-0.642,2.871-2.159,3.128-5.315
				C16.104,985.837,14.339,985.975,13.039,986.07C13.547,988.671,14.339,985.975,13.039,986.07z"/>
			<path fill="#FFFFFF" d="M10.317,978.274c-1.323,0.758-2.666,2.511-2.813,5.421c0.568-0.146,1.374-0.342,2.137-0.459
				C9.612,982.163,9.641,980.41,10.317,978.274C8.994,979.032,9.641,980.41,10.317,978.274z"/>
			<path fill="#FFFFFF" d="M7.881,986.707c0.806,2.865,2.667,4.156,3.761,4.592c-0.898-1.678-1.37-3.266-1.674-4.91
				C9.047,986.514,8.377,986.618,7.881,986.707C8.687,989.572,8.377,986.618,7.881,986.707z"/>
			<path fill="#FFFFFF" d="M21.797,976.266c-2.092,0.275-1.986,1.948-1.787,2.324C20.437,977.64,20.665,977.254,21.797,976.266z"/>
			<path fill="#FFFFFF" d="M17.792,970.162c0.44-0.307,0.44-1.057,0.373-1.408C17.836,969.26,17.683,969.745,17.792,970.162z"/>
			<path fill="#FFFFFF" d="M47.133,961.969c-1.417,0.064-2.048,0.508-2.273,2C47.169,963.098,46.582,962.2,47.133,961.969z"/>
			<path fill="#FFFFFF" d="M25.544,967.466c-0.138,0.835-0.842,0.841-1.132,1.22c-0.109-0.152,0.043-0.617,0.13-0.812
				c-0.806,0.543-1.307,1.396-1.307,2.091c-0.099-0.167-1.605-2.583-1.85-1.959c-0.103,0.263,0.447,1.267,0.511,1.556
				c0.11,0.5,0.279,1.76-0.382,2.037c0.045-0.348-0.514-4.109-1.108-3.695c-1.088,0.758-0.506,3.657-0.078,4.576
				c-0.853-1.04-1.251-2.313-1.018-3.645c0.158-0.906,0.531-1.724-0.302-2.443c0.236,1.74-1.283,3.4-0.808,5.079
				c0.164,0.575,0.838,1.103,1.225,1.554c0.23,0.269,0.582,0.688,0.977,0.688c0.403,0,0.414-0.583,0.212-0.805
				c0.569-0.074,0.847,0.803,0.849,0.803c0.852-0.059,1.453-2.273,1.637-2.926c0.278,0.739,0.229,1.538-0.033,2.273
				c-0.022,0.064-0.381,0.957-0.383,0.957c0.74-0.018,1.533-1.227,1.891-1.771c0.024,0.143-0.295,1.697,0.253,0.985
				c0.387-0.504,0.477-1.298,0.548-1.909c0.078-0.666,0.554-0.994,0.787-1.592c0.303-0.779-0.397-1.52-0.143-2.242
				c1.725,0.975,3.676,1.445,5.587,1.932c1.679,0.426,3.926-1.184,5.291-2.021c0.379-0.271,1.07-0.684,1.481-0.815
				c0.511-0.183,1.243,0.389,1.783,0.444c-0.41,0.541-1.077,1.309-1.451,2.08c0.062,0.076,0.246,0.16,0.313,0.205
				c0.589-1,1.208-1.852,1.821-2.515c0.041-0.044-0.25-0.099-0.207-0.294c0.031-0.033,0.6,0.294,0.981,0.174
				c0.024-0.023,0.185,0,0.164-0.207c0.185-0.064,0.236-0.227,0.217-0.262c-0.457-0.076-0.809-0.145-0.962-0.135
				c-0.046,0.01-0.199,0.086-0.17,0.195c-0.087,0.007-0.216,0.043-0.223,0.131c-0.851,0.348-1.737-0.631-2.438-0.42
				c0.242-0.469,1.292-0.051,1.651,0.012c0.725,0.127,1.351-0.176,2.088,0.055c0.191,0.072,0.369,0.059,0.533-0.042
				c0.17-0.243-1.282-0.577-1.422-0.65c0.432-0.006,0.857-0.071,1.423,0.158c0.203-0.007,0.789-0.56,0.984-0.669
				c1.071-0.604,2.23-1.066,3.423-1.363l0.038-0.234c-1.112,0.196-2.167,0.545-4.516,1.877c-0.061-0.03-0.252-0.094-0.876-0.211
				c-1.034,0.121-2.084,0.077-3.115,0.23c-1.198,0.179-2.41,0.822-3.593,1.139c-0.853,0.228-1.967,0.871-2.82,0.934
				c-0.887,0.066-2.046-1.051-2.832-1.431c-0.211-0.089-1.209-0.663-1.411-0.705C26.721,965.211,25.74,966.637,25.544,967.466
				C25.406,968.301,25.74,966.637,25.544,967.466z"/>
			<path fill="#FFFFFF" d="M19.597,966.332c0.57,0.66,1.656,1.322,2.832,0.93c-1.699-0.369-3.014-3.863-4.93-3.979
				c-0.407-0.029-1.017,0.115-1.628,0.929C18.05,963.369,19.062,965.717,19.597,966.332
				C20.167,966.992,19.062,965.717,19.597,966.332z"/>
			<path fill="#FFFFFF" d="M44.918,962.033c-0.319,0.015-1.831,0.436-1.423,2.557C45.078,963.545,44.715,962.353,44.918,962.033z"/>
			<path fill="#FFFFFF" d="M42.95,963.079c-1.35,0.719-0.983,1.454-1.009,1.962l0.334,0.13
				C43.277,964.169,42.82,963.326,42.95,963.079C41.6,963.798,42.82,963.326,42.95,963.079z"/>
			<path fill="#FFFFFF" d="M40.532,994.915c-0.835-0.196-1.479-0.113-2.244-0.58c-0.691-0.421-1.467-0.825-2.258-1.017
				c-1.558,0.576-2.176,0.377-2.905,0.355c-0.901,0.485-1.923,0.324-2.814,0c-0.839,0.619-1.556,0.338-1.92,0.051
				c-1.423,0.842-1.217-0.371-2.178-0.393c-1.409,0.9-2.579,0.303-3.141-0.048c0.131,0.549,0.307,1.175,0.457,1.815l17.172,0.01
				C40.701,995.109,40.968,995.016,40.532,994.915C39.731,994.727,40.968,995.016,40.532,994.915z"/>
			<path fill="#FFFFFF" d="M40.102,995.803c-0.327-0.002-16.396-0.002-16.396-0.002l0.281,1.147c0.256,1.267-1.176,1.253-1.46,0.171
				l-0.327-1.318c0,0-2.799,0-5.298,0.004C23.729,999.852,33.26,999.688,40.102,995.803
				C39.775,995.801,38.853,996.512,40.102,995.803z"/>
			<path fill="#FFFFFF" d="M13.826,966.447c-3.621,5.024-1.937,8.057-1.615,8.701c-0.174-0.756-0.493-2.223,0-3.5
				c0,0.221,0.087,0.93,0.61,1.423c-0.116-1.278-0.668-2.366,1.496-6.834C14.47,965.908,14.126,966.03,13.826,966.447
				C10.205,971.472,14.126,966.03,13.826,966.447z"/>
			<path fill="#FFFFFF" d="M20.089,987.262c-0.122-0.536-0.527-2.176-0.733-2.953c-0.289-0.449-0.615-0.74-0.925-0.914
				c0.683,3.001-0.083,7.211-3.125,8.695c-2.851,1.391-5.678-0.562-7.065-3.057c-1.562-2.811-1.673-6.744,0.15-9.471
				c1.616-2.416,4.54-3.051,6.958-1.336c-0.698-1.205-0.939-1.855-1.14-2.534c-4.433-1.681-7.663,2.902-8.237,6.7
				c-0.652,4.309,1.428,11.062,6.435,11.861C16.297,995.143,19.556,991.666,20.089,987.262
				C19.967,986.726,19.556,991.666,20.089,987.262z"/>
			<path fill="#FFFFFF" d="M13.736,959.521c0.643,1.807,4.154,18.963,4.962,18.811c0.12-0.023,0.301-0.225,0.186-0.642
				c0,0-1.829-7.188-1.895-7.493c0.545-0.872,0.668-2.15,1.175-2.809c0.46,0.629,0.33-1.033,0.307-1.186
				c-0.088-0.576-0.324-1.176-0.822-1.517c-0.794-0.545-1.633,0.087-1.789,0.944l-1.546-6.233c0.294-0.043,0.511,0.087,0.716,0.283
				c-0.062-0.647-0.737-2.866-1.968-3.519c-0.643,2.048-0.095,3.445,0.08,4.026C13.202,959.932,13.358,959.607,13.736,959.521
				C13.809,959.725,13.358,959.607,13.736,959.521z"/>
			<path fill="#FFFFFF" d="M21.579,993.323c-1.336,0.929-3.595,1.454-4.857,1.497c-0.654,0.016-0.673,0.207-0.64,0.291
				c0.516,0.008,5.955-0.009,5.955-0.009S21.695,993.758,21.579,993.323C20.243,994.252,21.695,993.758,21.579,993.323z"/>
			<path fill="#FFFFFF" d="M45.107,963.95c2.037-0.054,2.297,0.97,2.266,1.438C47.188,965.214,45.63,965.345,45.107,963.95z"/>
			<path fill="#FFFFFF" d="M43.684,964.647c0.828,1.206,1.817,1.093,2.338,1.278C45.412,964.387,44.03,964.569,43.684,964.647z"/>
			<path fill="#FFFFFF" d="M43.698,965.49c-0.307-0.152-0.965-0.324-1.307-0.131c0,0,0.145,1.365,2.265,1.104
				C44.688,966.537,44.016,965.648,43.698,965.49C43.391,965.338,44.016,965.648,43.698,965.49z"/>
			<path fill="#FFFFFF" d="M40.212,994.276c0.324,0,0.93,0.087,1.511-0.378c0.414,0.131,0.62-0.211,0.698-0.407
				c-0.559-0.255-1.097-0.591-1.6-0.942c-0.586-0.408-1.059-1.105-1.741-1.353c-0.61,0.292-1.544,1.63-2.004,1.714
				C38.15,993.348,38.914,994.273,40.212,994.276C40.537,994.276,38.914,994.273,40.212,994.276z"/>
		</g>
		<path fill="#FFFFFF" d="M43.407,954.801"/>
		<path fill="#FFFFFF" d="M40.663,983.289c-0.182,0.734-1.951,0.301-1.77-0.434c0.303,0.031,0.575-0.084,1.016-0.321
			C40.048,982.849,40.397,983.062,40.663,983.289C40.589,983.584,40.397,983.062,40.663,983.289z"/>
		<path fill="#FFFFFF" d="M41,985.234c0.371,0.131,0.765,0.102,1.005-0.03c0.189,0.646-1.099,1.76-1.589,1.153
			C40.829,986.164,41.033,985.692,41,985.234C41.371,985.365,41.033,985.692,41,985.234z"/>
		<path fill="#FFFFFF" d="M39.488,986.86c0.941,0.446,0.661,1.431-0.328,1.421c-0.69-0.007-2.106-1.029-0.889-1.501
			C38.417,986.893,39.026,986.996,39.488,986.86C39.915,987.062,39.026,986.996,39.488,986.86z"/>
		<path fill="#FFFFFF" d="M39.067,985.312c-0.021,0-0.04,0.003-0.06,0.004c-0.581-0.218-0.717-0.517-0.687-0.898
			c-1.015,0-1.147,0.987-0.09,1.185c-0.761,0.728,0.816,1.034,1.248,0.915C40.562,986.217,39.919,985.299,39.067,985.312
			C39.047,985.312,39.627,985.304,39.067,985.312z"/>
		<path fill="#FFFFFF" d="M42.706,988.594c-0.578,0.94-2.525-0.262-1.949-1.199C41.335,986.456,43.281,987.657,42.706,988.594z"/>
		<path fill="#FFFFFF" d="M46.021,991.891c0,1.953-3.376,1.954-3.376,0C42.646,989.936,46.021,989.936,46.021,991.891z"/>
		<path fill="#FFFFFF" d="M46.828,985.879c1.081,0.459,0.219,1.509-0.543,1.656c-0.743,0.144-1.929-0.469-1.15-1.306
			C45.347,986.379,46.425,986.443,46.828,985.879C47.092,985.99,46.425,986.443,46.828,985.879z"/>
		<path fill="#FFFFFF" d="M47.503,989.115c-0.7-0.022-1.252-0.537-1.232-1.154c0.391,0.055,1.233-0.354,1.301-1.073
			C49.18,986.936,49.11,989.164,47.503,989.115C46.803,989.093,48.203,989.137,47.503,989.115z"/>
		<path fill="#FFFFFF" d="M43.222,989.188c1.623,0.143,2.039-0.562,2.185-1.221C47.894,989.11,43.912,991.555,43.222,989.188
			C44.845,989.33,43.367,989.684,43.222,989.188z"/>
		<path fill="#FFFFFF" d="M39.986,990.449c0.105-0.25,0.332-0.424,0.618-0.508c0.015,0.318,0.402,1.432,2.074,1.149
			c-0.054,0.126-0.065,0.419,0.101,0.549C42.206,992.984,39.413,991.793,39.986,990.449
			C40.092,990.199,39.75,991.002,39.986,990.449z"/>
		<path fill="#FFFFFF" d="M40.679,989.552c-0.289,0.931-2.481,0.247-2.189-0.684c0.19,0.091,0.712,0.2,1.308-0.339
			C40.402,988.719,40.796,989.176,40.679,989.552C40.562,989.929,40.796,989.176,40.679,989.552z"/>
		<path fill="#FFFFFF" d="M43.322,990.514c-0.659,0.199-2.325,0.135-2.325-0.879c0.167-0.043,0.9,0.168,1.743-0.617
			C42.668,989.569,42.885,990.201,43.322,990.514C43.107,990.579,42.885,990.201,43.322,990.514z"/>
		<path fill="#FFFFFF" d="M44.484,982.828c-0.772,0.482-1.352,0.569-1.581,0.395c1.193-0.314,1.523-1.572-0.017-1.373
			c-0.05,0.342-0.176,0.793-1.424,0.803c-0.218,0.523,0.53,0.658,0.863,0.652c-0.225,0.542-0.835,0.76-1.485,0.677
			c-0.052,1.084,2.533,1.162,2.485,0.067C44.186,984.283,45.938,983.434,44.484,982.828
			C43.712,983.311,44.834,982.973,44.484,982.828z"/>
		<path fill="#FFFFFF" d="M38.528,983.451c0-0.605-1.051-0.605-1.421-0.646c-0.075-1.047-0.151-2.094-0.189-3.144
			c-0.025-0.687,0.179-1.708-0.452-2.188c-0.981-0.748-2.831-1.201-4.02-1.473c-0.904,0.007-1.695,0.523-2.399,1.021
			c1.18-0.035,2.396-0.048,3.461,0.553c1.316,0.742,1.271,1.83,2.865,0.689c-0.102,0.625-0.435,1.035-0.807,1.516
			c-0.435,0.565-0.37,1.474-0.232,2.123c0.174-0.438,0.187-1.361,0.929-1.772c-1.133,2.074,0.074,4.571,1.017,6.39
			c0.081-0.35,0-1.081-0.085-2.433C37.552,984.087,38.528,984,38.528,983.451z"/>
		<path fill="#FFFFFF" d="M44.399,986.912c-0.257,0.347-0.498,0.974-1.412,1.148c0.382,0.623,1.38,0.365,1.844,0.015
			C44.483,987.596,44.417,987.311,44.399,986.912C44.142,987.259,44.417,987.311,44.399,986.912z"/>
		<path fill="#FFFFFF" d="M46.258,984.143c-0.563-0.24-2.126-0.041-1.173,0.765c-0.283-0.011-0.458-0.054-0.73-0.435
			c-0.28,0.132-0.569,0.061-0.724,0.045c-0.063,0.189-0.028,0.395,0.081,0.582c-0.817-0.313-2.179,0.705-1.589,1.591
			c0.638,0.951,2.405-0.142,2.03-1.155c0.464,0.278,1.321,0.4,1.652-0.159C47.232,985.935,47.567,984.699,46.258,984.143
			C45.62,983.871,46.897,984.414,46.258,984.143z"/>
		<path fill="#FFFFFF" d="M26.764,964.285c-0.86-0.627-0.878-1.268-1.292-1.061c0.522,1.133,0.421,1.946-1.236,2.779
			c-0.145-0.381,0.633-0.746,0.807-1.003c0.232-0.343,0.257-0.771,0.203-1.169c-0.091-0.674-0.509-1.479-1.3-1.464
			c0.466,0.667,0.942,1.386,0.511,2.521c-0.001-0.96-0.206-1.266-0.858-2.042c-0.191,0.236-0.647,0.522-0.69,1.06
			c-0.552-0.289,0.754-1.747,0.482-2.395c-0.37-0.197-0.543-0.639-0.595-1.076c0.488,0.504,1.31,0.891,2.022,0.846
			c0.662-0.041,0.161-0.81,0.584-0.794c0.071-0.202-0.01-0.261-0.118-0.342c0.22,0,0.292-0.14,0.308-0.188
			c-0.268-0.469,0.703-0.257,0.399-0.941c-0.357-0.809-0.065-1.536-0.359-2.342c0.582-0.381,0.519-0.951,0.271-1.037
			c-0.726-0.209-1.275-0.929-1.976-1.229c-0.815-0.353-2.092-0.351-2.898,0.034c-1.464,0.699-2.963,3.648-1.277,4.853
			c-0.475-1.76-0.054-3.86,1.752-4.698c0.947-0.252,2.167-0.23,2.559,0.422c-1.421-0.43-3.621,0.32-3.283,2.136
			c-0.494,0.015-0.576-0.503-0.581-0.508c-0.142,0.366-0.34,1.528,0.548,2.13c0.206,0.139,0.482-0.004,0.391-0.152
			c-0.365-0.593-0.08-1.076,0.048-1.123c0.32-0.124,0.627-0.44,0.676-0.848c0.262,0.501,0.13,0.85-0.174,1.154
			c0.936-0.217,0.457-0.624,1.677-0.799c-0.755,0.436-0.496,1.01-1.296,1.268c1.383,0.501,1.155-1.699,2.648-1.528
			c-1.297,0.134-1.156,3.501-4.082,4.096c-0.408,1.822-1.119,1.945-2.165,2.397c2.128,0.623,3.007,3.383,5.272,2.977
			c-0.233,0.406-0.552,0.406-0.843,0.406c-0.029,0.58,0.051,1.053,0.487,1.031c1.982-0.436,2.461-2.593,4.322-2.921
			C27.636,964.502,27.083,964.546,26.764,964.285C25.904,963.658,27.083,964.546,26.764,964.285z M24.367,956.326
			c0.654-0.219,0.61-0.59,0.364-1.061C25.871,955.824,25.718,956.455,24.367,956.326z M25.059,957.947
			c0.042-0.014-0.043-0.323-0.566-0.294c0.283-0.153,0.628-0.214,0.931-0.083c0.399,0.173,0.009,0.264-0.03,0.525
			c-0.008,0.052,0.115,0.088,0.145,0.139c-0.062-0.004-0.171,0.048-0.226,0.049c-0.021,0.053-0.079,0.236-0.134,0.241
			c-0.327-0.011-0.52-0.359-0.73-0.425C24.498,958.12,24.704,957.985,25.059,957.947C25.101,957.934,24.704,957.985,25.059,957.947z
			 M19.635,959.613c-1.626,1.191-0.466,2.625-1.803,3.336C19.386,962.898,18.967,960.658,19.635,959.613z"/>
		<path fill="#FFFFFF" d="M10.96,977.973c0.668-0.242,1.434-0.282,1.905-0.189c-1.809,6.253,0.072,11.389,1.383,13.632
			c-0.882,0.276-1.795,0.144-1.976,0.061C10.542,988.03,9.336,982.914,10.96,977.973C11.628,977.73,9.336,982.914,10.96,977.973z"/>
		<path fill="#FFFFFF" d="M7.506,984.27c0.029,0.638,0.145,1.496,0.231,1.888c2.295-0.422,5.193-0.726,10.206-0.824
			c0.048-0.513-0.093-1.653-0.177-1.936C14.694,983.121,9.347,983.568,7.506,984.27C7.535,984.907,9.347,983.568,7.506,984.27z"/>
		<path fill="#FFFFFF" d="M49.694,989.578c-0.426,0.582-1.225,1.522-1.775,2.07c-0.667-0.164-1.642-0.827-1.01-1.588
			C47.532,989.311,48.845,989.273,49.694,989.578C49.268,990.16,49.397,989.471,49.694,989.578z"/>
		<path fill="#FFFFFF" d="M42.543,981.715c-0.032,0.7-2.427,0.594-2.394-0.105C40.178,980.911,42.575,981.016,42.543,981.715z"/>
		<path fill="#FFFFFF" d="M40.599,981.013c-0.218-0.53-2.836,0.549-2.618,1.079C38.197,982.622,40.818,981.547,40.599,981.013z"/>
		<path fill="#FFFFFF" d="M40.257,984.008c-0.16,0.246-0.174,0.522,0.109,0.857c-1.421,0.717-2.633-1.048-0.742-1.048
			C39.733,983.906,39.879,984.021,40.257,984.008C40.097,984.254,39.879,984.021,40.257,984.008z"/>
	</g>
	<g>
		
			<rect x="47.633" y="1016.492" transform="matrix(0.7071 -0.7071 0.7071 0.7071 -701.9504 339.8417)" fill="#F48931" width="23.234" height="1.515"/>
		
			<rect x="47.633" y="1016.492" transform="matrix(0.7071 0.7071 -0.7071 0.7071 736.6583 256.0496)" fill="#F48931" width="23.234" height="1.515"/>
	</g>
	<polyline fill="none" stroke="#F48931" stroke-width="1.5" stroke-miterlimit="10" points="91.458,1009.5 78.5,1017.5 
		91.458,1025.417 	"/>
	<polyline fill="none" stroke="#F48931" stroke-width="1.5" stroke-miterlimit="10" points="100.5,1009.5 113.458,1017.5 
		100.5,1025.417 	"/>
	<polyline fill="none" stroke="#F48931" stroke-width="1.5" stroke-miterlimit="10" points="122.5,1010.5 130.5,1023.458 
		138.417,1010.5 	"/>
	<polyline fill="none" stroke="#F48931" stroke-width="1.5" stroke-miterlimit="10" points="146.5,1024.458 154.5,1011.5 
		162.417,1024.458 	"/>
	<g>
		<rect x="0.5" y="1016.75" fill="#F48931" width="18" height="1.5"/>
		<rect x="8.75" y="1008.5" fill="#F48931" width="1.5" height="18"/>
	</g>
	<g>
		<rect x="24.5" y="1016.75" fill="#F48931" width="18" height="1.5"/>
	</g>
	<path id="download-6-icon" fill="#F48931" d="M194.427,1018.522l-7.964,7.978l-7.963-7.978h3.662v-2.987h8.603v2.987H194.427z
		 M182.162,1014.181h8.603v-2.446h-8.603V1014.181z M190.765,1010.468v-1.968h-8.603v1.968H190.765z"/>
	<g>
		<g>
			<path fill-rule="evenodd" clip-rule="evenodd" fill="#FDC079" d="M0.5,1105.5h2v-16h-2V1105.5z M4.499,1105.5h2v-16h-2V1105.5z
				 M8.499,1089.5v16h2v-16H8.499z"/>
		</g>
	</g>
	<g>
		
			<rect x="47.633" y="1043.492" transform="matrix(0.7071 -0.7071 0.7071 0.7071 -721.0423 347.7498)" fill="#FFFFFF" width="23.234" height="1.515"/>
		
			<rect x="47.633" y="1043.492" transform="matrix(0.7071 0.7071 -0.7071 0.7071 755.7502 263.9577)" fill="#FFFFFF" width="23.234" height="1.515"/>
	</g>
	<polyline fill="none" stroke="#FFFFFF" stroke-width="1.5" stroke-miterlimit="10" points="91.458,1036.5 78.5,1044.5 
		91.458,1052.417 	"/>
	<polyline fill="none" stroke="#FFFFFF" stroke-width="1.5" stroke-miterlimit="10" points="100.5,1036.5 113.458,1044.5 
		100.5,1052.417 	"/>
	<polyline fill="none" stroke="#FFFFFF" stroke-width="1.5" stroke-miterlimit="10" points="122.5,1037.5 130.5,1050.458 
		138.417,1037.5 	"/>
	<polyline fill="none" stroke="#FFFFFF" stroke-width="1.5" stroke-miterlimit="10" points="146.5,1051.458 154.5,1038.5 
		162.417,1051.458 	"/>
	<g>
		<rect x="0.5" y="1043.75" fill="#FFFFFF" width="18" height="1.5"/>
		<rect x="8.75" y="1035.5" fill="#FFFFFF" width="1.5" height="18"/>
	</g>
	<g>
		<rect x="24.5" y="1043.75" fill="#FFFFFF" width="18" height="1.5"/>
	</g>
	<path id="download-6-icon_1_" fill="#FFFFFF" d="M194.427,1045.522l-7.964,7.978l-7.963-7.978h3.662v-2.987h8.603v2.987H194.427z
		 M182.162,1041.181h8.603v-2.446h-8.603V1041.181z M190.765,1037.468v-1.968h-8.603v1.968H190.765z"/>
	<g>
		<rect x="20.5" y="1089.5" fill="#FFFFFF" width="22" height="1"/>
		<polyline fill="none" stroke="#F9F9F9" stroke-miterlimit="10" points="20.5,1090.938 21.475,1090.938 31.412,1100.23 
			41.55,1090.938 42.5,1090.938 		"/>
		<polyline fill="#FFFFFF" stroke="#D0CDC9" stroke-miterlimit="10" points="20.5,1090 21.475,1090 31.412,1099.293 41.55,1090 
			42.5,1090 		"/>
	</g>
	<g>
		<rect x="50.5" y="1099.73" fill="#FFFFFF" width="22" height="1"/>
		<g>
			<polyline fill="none" stroke="#F9F9F9" stroke-miterlimit="10" points="72.5,1099.293 71.55,1099.293 61.412,1090 
				51.475,1099.293 50.5,1099.293 			"/>
			<polyline fill="#FFFFFF" stroke="#D0CDC9" stroke-miterlimit="10" points="72.5,1100.23 71.55,1100.23 61.412,1090.938 
				51.475,1100.23 50.5,1100.23 			"/>
		</g>
	</g>
	<g>
		<path fill="#2E2A2B" d="M66.501,1117.5c-11.046,0-20.001,8.954-20.001,20s8.955,20,20.001,20c11.045,0,19.999-8.954,19.999-20
			S77.546,1117.5,66.501,1117.5z M66.501,1156.271c-10.367,0-18.772-8.404-18.772-18.771c0-10.367,8.405-18.771,18.772-18.771
			c10.366,0,18.77,8.404,18.77,18.771C85.271,1147.866,76.867,1156.271,66.501,1156.271z"/>
		<g>
			<path fill="#2E2A2B" d="M66.5,1120.767c-9.241,0-16.734,7.49-16.734,16.733c0,9.241,7.493,16.733,16.734,16.733
				c9.242,0,16.734-7.492,16.734-16.733C83.235,1128.257,75.742,1120.767,66.5,1120.767z M71.356,1129.013
				c0-0.465,0.375-0.841,0.84-0.841c0.464,0,0.84,0.376,0.84,0.841v2.113c0,0.463-0.375,0.84-0.84,0.84
				c-0.465,0-0.84-0.377-0.84-0.84V1129.013z M60.008,1129.009c0-0.464,0.376-0.841,0.84-0.841c0.463,0,0.84,0.377,0.84,0.841v2.113
				c0,0.464-0.376,0.841-0.84,0.841c-0.464,0-0.84-0.377-0.84-0.841V1129.009z M76.023,1146.83H56.978v-16.596h2.016v0.857
				c0,1.022,0.832,1.854,1.855,1.854c1.022,0,1.855-0.832,1.855-1.854v-0.857h7.638v0.86c0,1.023,0.832,1.856,1.855,1.856
				c1.022,0,1.855-0.833,1.855-1.856v-0.86h1.971V1146.83z"/>
			<path fill="#2E2A2B" d="M58.827,1144.98h15.348v-10.284H58.827V1144.98z M67.607,1137.983c0.999,0.026,1.696-0.26,1.844-1.239
				h1.18v6.437h-1.453v-4.055h-1.571V1137.983z M64.017,1140.35v-1.086c0.637,0.056,1.331-0.036,1.331-0.676
				c0-0.507-0.411-0.738-0.793-0.738c-0.639,0-0.881,0.47-0.87,1.116h-1.396c0.058-1.562,1.003-2.347,2.257-2.347
				c1.077,0,2.192,0.684,2.192,1.825c0,0.591-0.261,1.052-0.71,1.276c0.587,0.225,0.942,0.758,0.942,1.438
				c0,1.338-1.104,2.138-2.416,2.138c-1.465,0-2.438-0.846-2.412-2.453h1.385c0.025,0.71,0.311,1.232,1.009,1.232
				c0.461,0,0.926-0.275,0.926-0.89C65.463,1140.407,64.922,1140.35,64.017,1140.35z"/>
		</g>
	</g>
	<g>
		<path fill="#2E2A2B" d="M20.501,1117.5c-11.046,0-20.001,8.954-20.001,20s8.955,20,20.001,20c11.045,0,19.999-8.954,19.999-20
			S31.546,1117.5,20.501,1117.5z M20.501,1156.271c-10.367,0-18.772-8.404-18.772-18.771s8.405-18.771,18.772-18.771
			c10.366,0,18.77,8.404,18.77,18.771S30.867,1156.271,20.501,1156.271z"/>
		<path fill="#2E2A2B" d="M20.501,1120.766c-9.243,0-16.734,7.493-16.734,16.734s7.492,16.734,16.734,16.734
			c9.241,0,16.734-7.493,16.734-16.734S29.742,1120.766,20.501,1120.766z M29.095,1147.204h-2.211v-5.492h-3.257v5.492H23.1h-0.629
			v-5.492h-3.256v5.492h-0.629h-0.527v-5.492h-3.256v5.492h-2.212v-7.496l8.252-7.205l8.252,7.149V1147.204z M29.995,1138.608
			l-9.154-8.05l-9.271,8.123l-1.605-1.612l10.88-9.727l10.759,9.656L29.995,1138.608z"/>
	</g>
	<g>
		<path fill="#2E2A2B" d="M112.5,1117.5c-11.046,0-20,8.955-20,20c0,11.046,8.954,20,20,20c11.046,0,20-8.954,20-20
			C132.5,1126.455,123.546,1117.5,112.5,1117.5z M112.5,1156.271c-10.367,0-18.771-8.404-18.771-18.771
			c0-10.366,8.404-18.771,18.771-18.771c10.366,0,18.771,8.404,18.771,18.771C131.271,1147.867,122.867,1156.271,112.5,1156.271z"/>
		<g>
			<path fill="#2E2A2B" d="M112.5,1130.854c-3.666,0-6.646,2.98-6.646,6.646c0,3.663,2.98,6.646,6.646,6.646
				c3.664,0,6.646-2.982,6.646-6.646C119.146,1133.835,116.165,1130.854,112.5,1130.854z M112.5,1142.611
				c-2.819,0-5.112-2.293-5.112-5.111s2.293-5.112,5.112-5.112s5.112,2.294,5.112,5.112S115.319,1142.611,112.5,1142.611z"/>
			<path fill="#2E2A2B" d="M112.525,1120.767c-9.241,0-16.733,7.491-16.733,16.733c0,9.241,7.492,16.733,16.733,16.733
				c9.244,0,16.734-7.492,16.734-16.733C129.259,1128.258,121.769,1120.767,112.525,1120.767z M120.687,1141.071l0.959,1.694
				l-1.949,0.016c-1.04,0.01-1.88,0.851-1.89,1.891l-0.017,1.948l-1.695-0.96c-0.905-0.512-2.054-0.204-2.581,0.692l-0.99,1.678
				l-0.987-1.678c-0.529-0.896-1.677-1.204-2.582-0.692l-1.696,0.96l-0.016-1.948c-0.009-1.04-0.851-1.881-1.89-1.891l-1.948-0.016
				l0.959-1.694c0.512-0.906,0.205-2.055-0.691-2.582l-1.678-0.989l1.678-0.989c0.896-0.527,1.203-1.676,0.691-2.581l-0.959-1.696
				l1.948-0.016c1.039-0.01,1.88-0.85,1.89-1.89l0.016-1.948l1.696,0.958c0.905,0.512,2.053,0.206,2.581-0.69l0.988-1.678
				l0.99,1.678c0.527,0.896,1.677,1.203,2.582,0.69l1.695-0.958l0.017,1.948c0.01,1.04,0.85,1.88,1.89,1.89l1.949,0.016
				l-0.959,1.696c-0.512,0.905-0.204,2.054,0.691,2.581l1.678,0.989l-1.678,0.989
				C120.483,1139.017,120.175,1140.165,120.687,1141.071z"/>
		</g>
	</g>
	<g>
		
			<rect x="47.633" y="1066.492" transform="matrix(0.7071 -0.7071 0.7071 0.7071 -737.3058 354.4863)" fill="#DBD8D8" width="23.234" height="1.515"/>
		
			<rect x="47.633" y="1066.492" transform="matrix(0.7071 0.7071 -0.7071 0.7071 772.0137 270.6942)" fill="#DBD8D8" width="23.234" height="1.515"/>
	</g>
	<polyline fill="none" stroke="#DBD8D8" stroke-width="1.5" stroke-miterlimit="10" points="91.458,1059.5 78.5,1067.5 
		91.458,1075.417 	"/>
	<polyline fill="none" stroke="#DBD8D8" stroke-width="1.5" stroke-miterlimit="10" points="100.5,1059.5 113.458,1067.5 
		100.5,1075.417 	"/>
	<polyline fill="none" stroke="#DBD8D8" stroke-width="1.5" stroke-miterlimit="10" points="122.5,1060.5 130.5,1073.458 
		138.417,1060.5 	"/>
	<polyline fill="none" stroke="#DBD8D8" stroke-width="1.5" stroke-miterlimit="10" points="146.5,1074.458 154.5,1061.5 
		162.417,1074.458 	"/>
	<g>
		<rect x="0.5" y="1066.75" fill="#DBD8D8" width="18" height="1.5"/>
		<rect x="8.75" y="1058.5" fill="#DBD8D8" width="1.5" height="18"/>
	</g>
	<g>
		<rect x="24.5" y="1066.75" fill="#DBD8D8" width="18" height="1.5"/>
	</g>
	<path id="download-6-icon_2_" fill="#DBD8D8" d="M194.427,1068.522l-7.964,7.978l-7.963-7.978h3.662v-2.987h8.603v2.987H194.427z
		 M182.162,1064.181h8.603v-2.446h-8.603V1064.181z M190.765,1060.468v-1.968h-8.603v1.968H190.765z"/>
	<g>
		<path id="download-6-icon_3_" fill="#F48931" d="M215.765,1018.512h3.663l-7.964,7.978l-7.963-7.978h3.662H215.765z"/>
		<rect x="210.713" y="1008.5" fill="#F48931" width="1.5" height="10.012"/>
	</g>
	<g>
		<path id="download-6-icon_4_" fill="#DBD8D8" d="M215.765,1068.512h3.663l-7.964,7.978l-7.963-7.978h3.662H215.765z"/>
		<rect x="210.713" y="1058.5" fill="#DBD8D8" width="1.5" height="10.012"/>
	</g>
	<g>
		<path id="download-6-icon_5_" fill="#FFFFFF" d="M215.765,1045.512h3.663l-7.964,7.978l-7.963-7.978h3.662H215.765z"/>
		<rect x="210.713" y="1035.5" fill="#FFFFFF" width="1.5" height="10.012"/>
	</g>
	<g>
		<line fill="none" stroke="#C8C3BE" stroke-miterlimit="10" x1="300" y1="900.5" x2="300" y2="1200.5"/>
		<line fill="none" stroke="#FFFFFF" stroke-miterlimit="10" x1="299" y1="900.5" x2="299" y2="1200.5"/>
	</g>
	<g>
		<path id="download-6-icon_8_" fill="#F48931" d="M232.162,1016.477H228.5l7.963-7.978l7.964,7.978h-3.663H232.162z"/>
		<rect x="235.713" y="1016.477" fill="#F48931" width="1.5" height="10.012"/>
	</g>
	<g>
		<path id="download-6-icon_7_" fill="#DBD8D8" d="M232.162,1066.477H228.5l7.963-7.978l7.964,7.978h-3.663H232.162z"/>
		<rect x="235.713" y="1066.477" fill="#DBD8D8" width="1.5" height="10.012"/>
	</g>
	<g>
		<path id="download-6-icon_6_" fill="#FFFFFF" d="M232.162,1043.477H228.5l7.963-7.978l7.964,7.978h-3.663H232.162z"/>
		<rect x="235.713" y="1043.477" fill="#FFFFFF" width="1.5" height="10.012"/>
	</g>
</g>
</svg>
