<svg xmlns="http://www.w3.org/2000/svg" width="289.999" height="55.812" viewBox="0 0 289.999 55.812"><g fill="#1D1D1B"><path d="M73.205 20.74h4.066c3.187 0 4.61 1.807 4.61 3.771 0 1.378-.679 2.576-1.876 3.118v.045c1.74.407 2.847 1.83 2.847 3.616 0 2.372-1.762 4.338-5.174 4.338h-4.474V20.74zm3.773 6.326c1.671 0 2.555-.858 2.555-2.191 0-1.243-.77-2.169-2.555-2.169h-1.4v4.36h1.4zm.497 6.598c1.854 0 2.96-.678 2.96-2.35 0-1.425-1.062-2.282-2.711-2.282h-2.146v4.632h1.897zM91.777 20.672h1.763l5.897 14.958h-2.53l-1.446-3.819h-5.536l-1.424 3.819h-2.44l5.716-14.958zm2.938 9.197l-1.197-3.391c-.429-1.22-.633-1.896-.792-2.396h-.045a52.951 52.951 0 0 1-.812 2.396l-1.243 3.391h4.089zM103.437 20.74h2.327l6.531 8.449a42.265 42.265 0 0 1 1.831 2.53h.045a88.956 88.956 0 0 1-.045-2.553v-8.428h2.372v14.89h-2.102l-6.778-8.79c-.746-.949-1.312-1.762-1.831-2.462h-.045c.045.655.067 1.423.067 2.396v8.855h-2.373V20.74zM122.102 20.74h2.373v6.508h.045l5.287-6.508h2.757l-6.033 7.273 6.395 7.615h-2.892l-5.514-6.621h-.045v6.621h-2.373V20.74zM141.73 28.241c0-4.52 3.097-7.638 7.436-7.638 4.36 0 7.411 3.163 7.411 7.638 0 4.607-3.164 7.614-7.411 7.614-4.316 0-7.436-3.027-7.436-7.614zm12.34 0c0-3.366-1.854-5.626-4.903-5.626-2.938 0-4.904 2.146-4.904 5.626 0 3.479 1.966 5.604 4.904 5.604 2.936 0 4.903-2.124 4.903-5.604zM161.525 20.74h8.604l-.654 1.942h-5.578v4.36h5.488v1.942h-5.488v6.644h-2.372V20.74zM180.89 20.74h8.99l-.654 1.942h-5.963v4.36h5.918v1.942h-5.918v4.698h6.688v1.944h-9.06l-.001-14.886zM194.985 20.74h2.329l6.53 8.449a39.998 39.998 0 0 1 1.829 2.53h.045a88.956 88.956 0 0 1-.045-2.553v-8.428h2.373v14.89h-2.101l-6.778-8.79c-.746-.949-1.312-1.762-1.831-2.462h-.045c.045.655.066 1.423.066 2.396v8.855h-2.374l.002-14.887zM225.853 34.681c-1.22.634-3.165 1.176-5.221 1.176-4.745 0-7.66-3.117-7.66-7.411 0-4.541 3.188-7.84 8.021-7.84 1.741 0 3.187.36 4.25.769v2.214a8.949 8.949 0 0 0-4.068-.972c-3.683 0-5.671 2.328-5.671 5.647 0 3.39 2.01 5.581 5.31 5.581 1.084 0 2.057-.204 2.667-.497v-4.881h2.372v6.214zM231.298 20.74h2.372v12.944h5.354v1.944h-7.728l.002-14.888zM247.341 20.672h1.762L255 35.63h-2.529l-1.447-3.819h-5.536l-1.424 3.819h-2.439l5.716-14.958zm2.935 9.197l-1.196-3.391c-.431-1.22-.635-1.896-.791-2.396h-.046c-.157.521-.385 1.198-.812 2.396l-1.244 3.391h4.089zM259 20.74h2.326l6.53 8.449a40.89 40.89 0 0 1 1.83 2.53h.045c-.021-.79-.045-1.627-.045-2.553v-8.428h2.373v14.89h-2.102l-6.777-8.79c-.746-.949-1.312-1.762-1.832-2.462h-.045c.045.655.066 1.423.066 2.396v8.855H259V20.74zM277.662 20.74h4.271c5.287 0 8.066 3.006 8.066 7.343 0 4.429-3.004 7.547-8.246 7.547h-4.092l.001-14.89zm4.112 12.946c4.183 0 5.693-2.598 5.693-5.58 0-3.207-1.875-5.422-5.738-5.422h-1.694v11.002h1.739z"/></g><path fill="#1D1D1B" d="M0 27.883c0 12.65 8.847 24.026 21.125 27.108 12.366 3.104 25.598-2.802 31.553-14.069 5.973-11.302 3.3-25.621-6.292-34.045-9.598-8.432-24.161-9.2-34.587-1.807C4.458 10.277 0 18.881 0 27.883"/><path fill="#FFF" d="M1.337 27.879c0 12.749 9.425 24.016 21.995 26.215C35.948 56.3 48.69 48.92 53.013 36.856c4.332-12.095-.867-25.919-12.056-32.199-11.212-6.293-25.738-3.436-33.773 6.578a26.697 26.697 0 0 0-5.847 16.644"/><path fill="#1D1D1B" d="M2.373 27.878c0 12.757 9.81 23.864 22.486 25.392 12.694 1.53 24.913-6.881 27.942-19.317 3.031-12.448-3.918-25.58-15.926-30.051-12.023-4.48-25.881.94-31.713 12.353a25.589 25.589 0 0 0-2.789 11.623"/><g fill="#FFF"><path d="M33.666 43.8c-4.312.55-6.443-.816-9.812-3.605.325 1.948 1.915 3.657 3.754 4.294 2.262.779 4.002.441 6.058-.689-4.313.55-.878.483 0 0zM24.663 46.688c.219.031.356-.354.174-.476-.328-.219-.618-.584-.327-1.468-.373.022-1.297-.455-1.672-2.068-.214 1.562.735 3.851 1.825 4.012.219.031-1.09-.161 0 0zM27.482 45.686c-.306-.922-2.085-1.049-2.266-1.512-.151.527-.391.552-.435 1.424.737-.603 1.479.289 1.872.849.472.668.997-.259.829-.761-.305-.922.291.869 0 0zM29.162 46.688c-.175-.29-.553-.282-.981-1.352-.774.94.662 2.107.981 1.352-.176-.292-.076.178 0 0z"/><path d="M26.226 30.09c-5.232 0-5.227 7.514-5.333 11.139l-1.122-4.456c-.275 0-.449.638-.381.904l3.119 12.474c.335 1.253.701.371.516-.446l-1.268-5.045a8.092 8.092 0 0 0 .672-2.111c-.291 0-.901-.088-.988-.436 1.655-.053 1.201-1.768 1.249-3.045.063-1.677.063-3.401.48-5.036.805-3.163 3.255-3.214 5.97-3.509-.552-.349-2.005-.433-2.914-.433zM16.111 47.471c1.525.394 3.984-.475 4.707-1.621-.1-.459-.187-.765-.314-1.312a3.268 3.268 0 0 1-.993 1.758c-1.089-.72-1.394.869-3.4 1.175 1.526.392 2.006-.306 0 0zM24.389 28.019c-1.285.205-2.457.122-3.725-.083-1.058-.171-2.748.49-2.358 1.83.043-.325.727-1.028 1.336-.942-.305.318-.499.59-.392.914.007.022 2.117-.779 2.404-.812.934-.103 2.264.142 3.041-.524.141-.121-.179-.403-.306-.383-2.73.434.127-.02 0 0zM49.759 15.859c-1.608 1.422-2.137.726-3.371 1.116-.062.021-.027-.151-.093-.125 1.608-2.129 2.832-.75 3.464-.991-1.609 1.422-.632.241 0 0z"/><path d="M48.326 18.229c.014-.75-.88-1.747-2.252-1.214 1.057 1.074 1.714.958 2.252 1.214zM37.017 42.297c.188-.477.125-.284-.222-.731-.19-.246.067-.65-.117-.806-.787-.582-1.743.308-2.92-1.35.566.24 1.288.768 2.012.539-.63-2.021-1.406-3.996-2.007-6.027-.16-.543-.187-1.349-.545-1.807-.542-.689-1.837-.419-2.503-.09.092-.242.924-.717 1.475-.785-2.322-.442-7.959-.881-8.062 2.798-.056 1.925 2.817.733 3.623.796.952.074-.64 1.25-.845 1.366-1.021.587-2.279.782-3.298.071.598.918 2.149 1.057 3.13.93 1.223-.158 2.096-.957 2.512-2.104.196 0 1.33-.045 2.113-1.22-.245 1.656-.813 2.225-1.395 2.658-.909 1.975-3.432 3.732-5.577 2.309 1.313 1.688 7.233 6.318 12.098 3.791-.185.834-1.927 1.444-2.63 1.884-1.379.863-2.929 1.225-4.544 1.312.083 1.219 2.042.943 2.483.791-.741-.107-1.127-.249-1.177-.441 1.393.075 2.903-.088 4.647-.872-.174.391-.275.668-.668.843 2.31.187 3.079-1.718 3.625-1.911-.117-.471-1.074-1.817-1.208-1.944.067-.171.134.127 0 0zM26.525 26.078c-.214.545-1.264 1.176-1.046 2.047 0-.261 1.238-1.361 1.525-1.917.598-1.157.261-1.523.043-2.569-.023.899-.163 1.519-.522 2.439-.213.545.359-.92 0 0zM18.855 37.145c.21.253.343.777.626.8-.057-.064.065-.568-.116-.812-.146-.757-.079-1.104.015-1.162.348-.227.231.598.483.806.064.053.153.116.263.05-.016-.195-.049-.465-.006-.852-.152-.348-.262-1.062-.262-1.094-.294-.463-.581-.856-1.031-1.19-1.225-1.533-1.872-3.554-2.673-5.315-.508-1.121-1.073-1.685-.899-2.003.24-.415.375-.678.49-.98-.2-.771-.821-3.178-1.161-4.528-1.04 1.873-1.54 4.883-1.035 6.938.321 1.308 1.086 2.605 1.958 3.621.589.688 2.005 1.732 2.005 2.717.06.241.147.677.125 1.18.063.189.493.65.663.755.428.255.266.719.555 1.069.21.251-.13-.16 0 0z"/><path d="M29.205 28.691c-.378.289-1.606-.43-2.44-.326-.565.086-.846.441-1.14.484-1.216-.238-2.479.267-3.422 1.015-.423.335-.801.73-1.1 1.183-.421.629-.115.932-.351 1.521-.362 1.223-.35 2.221-.211 3.065.318-1.134 1.276-5.026 4.938-5.768-.915-.175-2.235.219-3.138.596 1.018-1.16 2.701-1.133 3.812-1.074.06-.004-.225-.231-.325-.45.23 0 .486.271 1.264.233a14.37 14.37 0 0 0 1.634-.152c-.709.354-1.257.601-2.259.632 2.817.87 3.34-.177 4.821-.406-.203-.379-1.102-.64-2.083-.553-.378.29.981-.087 0 0zM17.148 36.412c-.605-2.79-2.655-4.608-4.229-5.023-.054-.016-.806 2.564-.717 5.016 1.654-.121 3.714-.077 4.946.007-.605-2.79-1.232-.084 0 0zM12.539 39.57c.508 2.601 1.205 4.188 1.74 5.165 1.288-.643 2.871-2.159 3.129-5.315-1.804-.083-3.569.055-4.869.15.508 2.601 1.3-.095 0 0zM9.816 31.774c-1.322.758-2.666 2.511-2.812 5.421a22.83 22.83 0 0 1 2.137-.459c-.03-1.073 0-2.826.675-4.962-1.322.758-.675 2.136 0 0zM7.381 40.207c.806 2.865 2.667 4.156 3.761 4.592-.897-1.678-1.37-3.266-1.674-4.91-.921.125-1.591.229-2.087.318.806 2.865.496-.089 0 0zM21.297 29.766c-2.092.275-1.986 1.948-1.787 2.324.427-.95.655-1.336 1.787-2.324zM17.292 23.662c.439-.307.439-1.057.373-1.408-.329.506-.482.991-.373 1.408zM46.633 15.469c-1.417.064-2.048.508-2.273 2 2.309-.871 1.722-1.769 2.273-2z"/><path d="M25.044 20.966c-.139.835-.842.841-1.132 1.22-.109-.151.043-.616.13-.812-.807.543-1.308 1.396-1.308 2.091-.099-.167-1.604-2.583-1.85-1.959-.103.263.447 1.268.511 1.557.11.5.279 1.76-.382 2.036.045-.348-.514-4.108-1.108-3.694-1.088.758-.506 3.656-.077 4.576-.854-1.04-1.251-2.313-1.019-3.646.158-.906.531-1.724-.302-2.443.236 1.74-1.283 3.4-.808 5.079.163.575.838 1.104 1.225 1.555.229.269.582.688.977.688.403 0 .414-.583.212-.805.569-.074.848.803.85.803.852-.059 1.453-2.273 1.637-2.926.278.738.229 1.538-.033 2.272a57.55 57.55 0 0 1-.383.957c.74-.018 1.533-1.227 1.892-1.771.023.143-.296 1.697.253.984.387-.504.477-1.298.548-1.908.078-.666.554-.994.787-1.593.303-.778-.397-1.52-.144-2.241 1.726.975 3.676 1.444 5.587 1.932 1.68.426 3.927-1.184 5.291-2.021.379-.271 1.07-.684 1.481-.814.511-.184 1.243.389 1.783.443-.41.541-1.077 1.31-1.451 2.08.062.076.246.16.312.205.589-1 1.208-1.852 1.821-2.515.041-.044-.25-.099-.207-.294.031-.033.6.294.981.174.023-.022.185 0 .164-.207.185-.063.235-.227.217-.262-.457-.076-.81-.146-.962-.135-.046.01-.199.086-.17.194-.088.007-.217.043-.224.131-.851.349-1.736-.631-2.438-.42.242-.469 1.292-.051 1.65.013.726.127 1.352-.177 2.088.055a.578.578 0 0 0 .533-.042c.17-.243-1.282-.577-1.422-.65.432-.006.857-.07 1.423.158.203-.007.789-.56.984-.669a13.782 13.782 0 0 1 3.423-1.363l.038-.233c-1.112.196-2.167.545-4.516 1.877-.062-.03-.252-.094-.876-.211-1.034.121-2.084.077-3.115.229-1.198.18-2.41.822-3.593 1.14-.854.228-1.968.87-2.82.934-.887.066-2.046-1.051-2.832-1.431-.211-.089-1.209-.663-1.411-.705-1.038.132-2.019 1.558-2.215 2.387-.139.835.196-.829 0 0z"/><path d="M19.097 19.832c.57.66 1.656 1.322 2.832.93-1.699-.369-3.014-3.862-4.93-3.979-.407-.029-1.018.115-1.628.929 2.179-.843 3.191 1.505 3.726 2.12.57.66-.535-.615 0 0zM44.418 15.533c-.319.015-1.831.436-1.423 2.557 1.583-1.045 1.22-2.236 1.423-2.557zM42.45 16.579c-1.351.719-.983 1.454-1.01 1.962l.334.13c1.002-1.002.545-1.845.676-2.092-1.35.719-.131.247 0 0zM40.032 48.415c-.836-.196-1.479-.113-2.244-.58-.691-.421-1.468-.825-2.259-1.017-1.558.575-2.176.377-2.904.354-.901.485-1.923.324-2.814 0-.839.619-1.556.338-1.92.051-1.423.843-1.217-.371-2.178-.393-1.409.899-2.579.303-3.142-.048.132.549.308 1.175.457 1.814l17.173.011c0 .002.267-.091-.169-.192-.802-.188.436.101 0 0zM39.602 49.303c-.327-.002-16.396-.002-16.396-.002l.28 1.147c.257 1.267-1.176 1.253-1.46.171l-.326-1.318s-2.8 0-5.299.004c6.828 4.047 16.359 3.883 23.201-.002-.328-.002-1.249.709 0 0zM13.326 19.947c-3.621 5.023-1.938 8.057-1.615 8.701-.174-.757-.493-2.224 0-3.5 0 .221.087.93.609 1.423-.115-1.278-.668-2.366 1.496-6.834.154-.329-.19-.207-.49.21-3.621 5.025.3-.417 0 0z"/><path d="M19.589 40.762c-.122-.536-.527-2.176-.733-2.953-.289-.448-.614-.739-.925-.914.683 3.002-.083 7.212-3.125 8.695-2.851 1.392-5.678-.562-7.064-3.057-1.562-2.812-1.674-6.744.149-9.471 1.616-2.416 4.54-3.052 6.958-1.337-.698-1.204-.938-1.854-1.14-2.533-4.434-1.682-7.663 2.901-8.237 6.699-.652 4.31 1.428 11.062 6.436 11.861 3.889.891 7.148-2.586 7.681-6.99-.122-.536-.533 4.404 0 0zM13.235 13.021c.644 1.807 4.154 18.963 4.963 18.811.119-.023.301-.225.186-.643 0 0-1.829-7.188-1.896-7.492.546-.872.669-2.15 1.176-2.81.46.629.33-1.033.307-1.186-.088-.576-.324-1.176-.822-1.518-.794-.545-1.633.087-1.789.944l-1.546-6.233c.294-.043.512.087.716.283-.062-.646-.736-2.866-1.968-3.519-.643 2.048-.095 3.445.08 4.025.06-.251.215-.576.593-.662.074.204-.378.086 0 0zM21.079 46.823c-1.336.929-3.596 1.454-4.857 1.497-.654.016-.673.207-.64.291.516.008 5.955-.01 5.955-.01s-.343-1.343-.458-1.778c-1.336.929.115.435 0 0zM44.606 17.45c2.037-.054 2.297.97 2.267 1.438-.185-.174-1.743-.043-2.267-1.438zM43.184 18.146c.828 1.206 1.817 1.094 2.338 1.278-.61-1.537-1.993-1.355-2.338-1.278zM43.198 18.99c-.308-.152-.966-.324-1.308-.131 0 0 .146 1.364 2.265 1.104.033.074-.639-.815-.957-.973-.307-.152.318.158 0 0zM39.712 47.776c.324 0 .93.087 1.511-.378.414.131.62-.211.698-.407-.56-.255-1.097-.591-1.601-.942-.586-.408-1.059-1.104-1.74-1.353-.61.292-1.544 1.63-2.004 1.714 1.073.438 1.838 1.363 3.136 1.366.325 0-1.298-.003 0 0z"/></g><path fill="#FFF" d="M40.163 36.789c-.183.734-1.951.301-1.771-.434.303.03.575-.084 1.017-.321.139.315.487.528.754.755-.074.295-.267-.227 0 0zM40.5 38.734c.371.131.765.102 1.005-.03.188.646-1.1 1.76-1.589 1.153.413-.193.617-.665.584-1.123.371.131.033.458 0 0zM38.987 40.36c.941.445.661 1.431-.327 1.421-.69-.007-2.106-1.029-.89-1.501.147.113.755.216 1.217.08.428.202-.462.136 0 0zM38.566 38.812c-.021 0-.04.003-.06.004-.581-.219-.717-.518-.688-.898-1.015 0-1.146.987-.09 1.186-.761.728.816 1.033 1.248.914 1.086-.301.443-1.219-.41-1.206-.019 0 .561-.008 0 0zM42.206 42.094c-.578.94-2.525-.262-1.949-1.199.578-.939 2.523.262 1.949 1.199zM45.521 45.391c0 1.953-3.376 1.954-3.376 0 .001-1.955 3.376-1.955 3.376 0zM46.328 39.379c1.081.459.219 1.509-.543 1.656-.743.144-1.93-.469-1.15-1.307.212.151 1.29.215 1.693-.349.264.111-.403.564 0 0zM47.003 42.615c-.7-.022-1.252-.537-1.232-1.154.392.055 1.233-.354 1.301-1.073a1.118 1.118 0 0 1-.069 2.227c-.7-.022.7.022 0 0z"/><path fill="#FFF" d="M42.722 42.688c1.623.144 2.039-.562 2.186-1.221 2.486 1.143-1.496 3.588-2.186 1.221 1.623.142.145.496 0 0zM39.485 43.949c.105-.25.332-.424.618-.508.016.317.402 1.432 2.074 1.148-.054.126-.065.419.101.549-.572 1.346-3.365.155-2.793-1.189.107-.25-.235.553 0 0z"/><path fill="#FFF" d="M40.179 43.052c-.289.932-2.48.247-2.188-.684.189.091.712.2 1.308-.339.602.19.997.647.88 1.023-.117.377.117-.376 0 0zM42.821 44.014c-.658.199-2.324.136-2.324-.879.167-.043.899.168 1.743-.617-.072.551.145 1.183.581 1.496-.215.065-.436-.313 0 0zM43.983 36.328c-.771.481-1.352.568-1.581.395 1.193-.313 1.523-1.571-.017-1.373-.05.343-.176.793-1.424.804-.218.522.53.657.863.651-.226.542-.835.761-1.485.678-.052 1.084 2.533 1.161 2.485.066.862.234 2.614-.615 1.159-1.221-.771.483.351.145 0 0zM38.027 36.951c0-.605-1.051-.605-1.421-.646-.074-1.047-.15-2.094-.188-3.144-.025-.688.179-1.708-.452-2.188-.981-.748-2.831-1.2-4.021-1.473-.903.007-1.694.523-2.398 1.021 1.18-.035 2.396-.049 3.461.553 1.316.742 1.271 1.83 2.865.688-.103.625-.436 1.035-.808 1.517-.435.564-.37 1.474-.231 2.123.174-.438.187-1.361.929-1.772-1.133 2.074.074 4.571 1.017 6.39.081-.35 0-1.08-.085-2.433.357 0 1.332-.087 1.332-.636zM43.898 40.412c-.257.347-.498.974-1.412 1.147.383.623 1.381.365 1.845.016-.349-.479-.414-.764-.433-1.163-.256.347.019.399 0 0zM45.758 37.643c-.563-.239-2.126-.041-1.173.766-.283-.011-.458-.055-.73-.436-.279.133-.568.062-.724.045a.706.706 0 0 0 .081.582c-.817-.312-2.179.705-1.589 1.592.638.95 2.404-.143 2.029-1.155.465.278 1.321.399 1.652-.159 1.427.557 1.762-.679.454-1.235-.638-.272.638.271 0 0zM26.264 17.785c-.86-.627-.878-1.269-1.292-1.062.522 1.134.421 1.946-1.236 2.779-.145-.381.634-.746.808-1.003.231-.343.257-.771.203-1.169-.092-.674-.51-1.479-1.301-1.464.467.667.942 1.386.512 2.521-.001-.96-.206-1.266-.858-2.042-.19.236-.646.522-.689 1.061-.553-.289.754-1.747.481-2.396-.37-.196-.543-.639-.595-1.076.488.505 1.31.892 2.021.847.662-.041.161-.811.584-.794.071-.202-.01-.262-.117-.343.22 0 .292-.14.308-.188-.268-.469.703-.257.399-.941-.357-.809-.065-1.535-.359-2.342.582-.381.519-.951.271-1.037-.726-.209-1.274-.929-1.976-1.229-.815-.354-2.092-.352-2.898.034-1.464.698-2.963 3.647-1.276 4.853-.476-1.76-.055-3.859 1.752-4.698.947-.252 2.167-.229 2.559.423-1.421-.431-3.621.319-3.283 2.136-.493.015-.575-.503-.58-.508-.143.365-.341 1.527.548 2.13.206.139.481-.004.391-.152-.365-.593-.08-1.076.048-1.123.32-.124.627-.439.676-.848.263.501.131.85-.174 1.154.937-.218.457-.625 1.678-.8-.756.437-.496 1.011-1.297 1.269 1.384.501 1.155-1.699 2.648-1.528-1.297.134-1.156 3.501-4.082 4.096-.408 1.822-1.119 1.945-2.165 2.397 2.128.623 3.007 3.383 5.272 2.977-.233.406-.553.406-.844.406-.028.58.052 1.053.487 1.031 1.982-.437 2.461-2.593 4.322-2.921-.074-.233-.627-.189-.946-.45-.861-.627.319.261 0 0zm-2.397-7.959c.653-.219.609-.59.363-1.062 1.141.56.988 1.191-.363 1.062zm.692 1.621c.042-.015-.043-.323-.565-.294.282-.153.628-.214.931-.083.399.173.009.264-.03.524-.008.053.115.088.146.14-.062-.004-.171.048-.227.049-.021.053-.079.236-.134.241-.327-.012-.52-.359-.729-.426.047.022.253-.113.608-.151.042-.013-.355.038 0 0zm-5.424 1.666c-1.626 1.19-.466 2.625-1.803 3.336 1.554-.051 1.135-2.291 1.803-3.336zM10.46 31.473c.668-.241 1.434-.281 1.905-.188-1.81 6.253.071 11.389 1.383 13.632-.882.276-1.795.144-1.977.061-1.729-3.448-2.935-8.564-1.311-13.505.668-.243-1.624 4.941 0 0z"/><path fill="#FFF" d="M7.006 37.77c.029.639.145 1.496.23 1.889 2.296-.422 5.193-.727 10.206-.824.049-.513-.093-1.653-.177-1.936-3.072-.278-8.418.169-10.259.871.029.637 1.841-.702 0 0zM49.193 43.078a21.583 21.583 0 0 1-1.774 2.07c-.667-.164-1.643-.827-1.01-1.589.623-.748 1.936-.786 2.784-.481-.425.582-.297-.107 0 0zM42.043 35.215c-.032.7-2.427.594-2.395-.104.03-.7 2.427-.595 2.395.104z"/><path fill="#FFF" d="M40.099 34.513c-.218-.529-2.836.55-2.618 1.079.215.53 2.836-.545 2.618-1.079zM39.757 37.508c-.16.246-.174.522.109.857-1.422.717-2.634-1.048-.742-1.048.108.089.255.204.633.191-.16.246-.378.013 0 0z"/></svg>